<?xml version="1.0" standalone="no"?><!DOCTYPE svg PUBLIC "-//W3C//DTD SVG 1.1//EN" "http://www.w3.org/Graphics/SVG/1.1/DTD/svg11.dtd"><svg width="960" height="200" version="1.1" xmlns="http://www.w3.org/2000/svg" xmlns:xlink="http://www.w3.org/1999/xlink"><defs xmlns="http://www.w3.org/1999/xhtml"><style type="text/css"><![CDATA[
body { font-style: normal; font-variant: normal; font-weight: normal; font-size: 10px; line-height: normal; font-family: sans-serif; }
.chord path { fill-opacity: 0.67; stroke: rgb(0, 0, 0); stroke-width: 0.5px; }
.chord path { fill-opacity: 1; stroke: rgb(0, 0, 0); stroke-width: 0.5px; }]]></style></defs><g transform="translate(480,100)"><defs><linearGradient id="lin_gradient" x1="0%" y1="0%" x2="100%" y2="100%" spreadMethod="pad"><stop offset="0%" stop-color="#008A00" stop-opacity="1"/><stop offset="100%" stop-color="white" stop-opacity="1"/></linearGradient></defs><defs><radialGradient id="rad_gradient" cx="50%" cy="50%" r="75%"><stop offset="0%" stop-color="#008A00" stop-opacity="1"/><stop offset="100%" stop-color="white" stop-opacity="0.2"/></radialGradient></defs><g><path d="M0,-84.05A84.05,84.05 0 0,1 38.33452419071619,-74.79884193669966L37.399535795820675,-72.97447993824358A82,82 0 0,0 0,-82Z" style="fill: rgb(0, 138, 0); stroke: rgb(0, 138, 0);"/><path d="M42.025,-72.78943518808207A84.05,84.05 0 0,1 70.59809275949912,-45.61043519548063L68.87618805804792,-44.497985556566476A82,82 0 0,0 41,-71.01408311032397Z" style="fill: rgb(0, 138, 0); stroke: rgb(0, 138, 0);"/><path d="M72.78943518808205,-42.02500000000003A84.05,84.05 0 0,1 83.94495938619683,-4.200749177200563L81.89752135238716,-4.098291880195671A82,82 0 0,0 71.01408311032395,-41.00000000000003Z" style="fill: rgb(0, 138, 0); stroke: rgb(0, 138, 0);"/><path d="M84.05,-5.003184593196809e-14A84.05,84.05 0 0,1 74.7988419366997,38.33452419071613L72.97447993824362,37.39953579582061A82,82 0 0,0 82,-4.881155700679814e-14Z" style="fill: rgb(0, 138, 0); stroke: rgb(0, 138, 0);"/><path d="M72.78943518808212,42.02499999999993A84.05,84.05 0 0,1 45.61043519548054,70.5980927594992L44.497985556566384,68.876188058048A82,82 0 0,0 71.01408311032402,40.99999999999993Z" style="fill: rgb(0, 138, 0); stroke: rgb(0, 138, 0);"/><path d="M42.02499999999993,72.78943518808212A84.05,84.05 0 0,1 4.20074917720023,83.94495938619684L4.098291880195346,81.89752135238716A82,82 0 0,0 40.99999999999993,71.01408311032402Z" style="fill: rgb(0, 138, 0); stroke: rgb(0, 138, 0);"/><path d="M-2.561333084432499e-13,84.05A84.05,84.05 0 0,1 -38.33452419071659,74.79884193669946L-37.399535795821066,72.97447993824338A82,82 0 0,0 -2.498861545787804e-13,82Z" style="fill: rgb(0, 138, 0); stroke: rgb(0, 138, 0);"/><path d="M-42.02500000000036,72.78943518808185A84.05,84.05 0 0,1 -70.59809275949945,45.61043519548014L-68.87618805804826,44.49798555656599A82,82 0 0,0 -41.000000000000355,71.01408311032377Z" style="fill: rgb(0, 138, 0); stroke: rgb(0, 138, 0);"/><path d="M-72.78943518808235,42.02499999999951A84.05,84.05 0 0,1 -83.94495938619687,4.2007491771997465L-81.89752135238719,4.098291880194875A82,82 0 0,0 -71.01408311032425,40.999999999999524Z" style="fill: rgb(0, 138, 0); stroke: rgb(0, 138, 0);"/><path d="M-84.05,-7.362208054138863e-13A84.05,84.05 0 0,1 -74.79884193669923,-38.33452419071702L-72.97447993824315,-37.399535795821485A82,82 0 0,0 -82,-7.182642004037916e-13Z" style="fill: rgb(0, 138, 0); stroke: rgb(0, 138, 0);"/><path d="M-72.78943518808163,-42.02500000000078A84.05,84.05 0 0,1 -45.6104351954797,-70.59809275949975L-44.49798555656557,-68.87618805804853A82,82 0 0,0 -71.01408311032354,-41.00000000000077Z" style="fill: rgb(0, 138, 0); stroke: rgb(0, 138, 0);"/><path d="M-42.02499999999906,-72.7894351880826A84.05,84.05 0 0,1 -4.2007491771992465,-83.94495938619689L-4.098291880194387,-81.8975213523872A82,82 0 0,0 -40.99999999999908,-71.0140831103245Z" style="fill: rgb(0, 138, 0); stroke: rgb(0, 138, 0);"/></g><g><g><g transform="rotate(-90)translate(84.05,0)"/></g><g><g transform="rotate(-60)translate(84.05,0)"/></g><g><g transform="rotate(-30.000000000000014)translate(84.05,0)"/></g><g><g transform="rotate(-2.842170943040401e-14)translate(84.05,0)"/></g><g><g transform="rotate(29.999999999999943)translate(84.05,0)"/></g><g><g transform="rotate(60.00000000000006)translate(84.05,0)"/></g><g><g transform="rotate(90.0000000000002)translate(84.05,0)"/></g><g><g transform="rotate(120.00000000000031)translate(84.05,0)"/></g><g><g transform="rotate(150.00000000000037)translate(84.05,0)"/></g><g><g transform="rotate(180.0000000000005)translate(84.05,0)"/></g><g><g transform="rotate(210.00000000000063)translate(84.05,0)"/></g><g><g transform="rotate(240.00000000000074)translate(84.05,0)"/></g></g><g class="chord"><path d="M3.235418227450102,-81.93614629022697A82,82 0 0,1 6.465797590107764,-81.74468460715802Q 0,0 3.235418227450102,-81.93614629022697Z" style="fill: url(#rad_gradient); opacity: 1;"/><path d="M19.236588120870326,-79.71169097107384A82,82 0 0,1 22.36673849152629,-78.89061420252511Q 0,0 43.77002752195249,-69.34107506180958A82,82 0 0,1 46.47188727234054,-67.56007469909173Q 0,0 19.236588120870326,-79.71169097107384Z" style="fill: url(#rad_gradient); opacity: 1;"/><path d="M6.465797590107764,-81.74468460715802A82,82 0 0,1 9.68610707074668,-81.42591313466504Q 0,0 72.57649328925967,-38.16611876827451A82,82 0 0,1 74.02587228919948,-35.27279733481751Q 0,0 6.465797590107764,-81.74468460715802Z" style="fill: url(#rad_gradient); opacity: 1;"/><path d="M9.68610707074668,-81.42591313466504A82,82 0 0,1 12.891331335050822,-80.98032832984771Q 0,0 81.93614629022696,3.2354182274500447A82,82 0 0,1 81.74468460715802,6.465797590107705Q 0,0 9.68610707074668,-81.42591313466504Z" style="fill: url(#rad_gradient); opacity: 1;"/><path d="M12.891331335050822,-80.98032832984771A82,82 0 0,1 16.076478542534065,-80.4086241498475Q 0,0 69.34107506180962,43.77002752195243A82,82 0 0,1 67.56007469909176,46.47188727234048Q 0,0 12.891331335050822,-80.98032832984771Z" style="fill: url(#rad_gradient); opacity: 1;"/><path d="M16.076478542534065,-80.4086241498475A82,82 0 0,1 19.236588120870326,-79.71169097107384Q 0,0 38.16611876827439,72.57649328925974A82,82 0 0,1 35.27279733481738,74.02587228919954Q 0,0 16.076478542534065,-80.4086241498475Z" style="fill: url(#rad_gradient); opacity: 1;"/><path d="M0,-82A82,82 0 0,1 3.235418227450102,-81.93614629022697Q 0,0 -3.235418227450367,81.93614629022696A82,82 0 0,1 -6.465797590108044,81.74468460715799Q 0,0 0,-82Z" style="fill: url(#rad_gradient); opacity: 1;"/><path d="M22.36673849152629,-78.89061420252511A82,82 0 0,1 25.46205473466507,-77.94667259536426Q 0,0 -43.770027521952855,69.34107506180936A82,82 0 0,1 -46.4718872723409,67.56007469909147Q 0,0 22.36673849152629,-78.89061420252511Z" style="fill: url(#rad_gradient); opacity: 1;"/><path d="M25.46205473466507,-77.94667259536426A82,82 0 0,1 28.517716181383086,-76.88133625138211Q 0,0 -72.57649328925996,38.166118768273975A82,82 0 0,1 -74.02587228919974,35.27279733481695Q 0,0 25.46205473466507,-77.94667259536426Z" style="fill: url(#rad_gradient); opacity: 1;"/><path d="M28.517716181383086,-76.88133625138211A82,82 0 0,1 31.52896392145634,-75.69626433344972Q 0,0 -81.93614629022694,-3.2354182274508347A82,82 0 0,1 -81.74468460715795,-6.465797590108512Q 0,0 28.517716181383086,-76.88133625138211Z" style="fill: url(#rad_gradient); opacity: 1;"/><path d="M31.52896392145634,-75.69626433344972A82,82 0 0,1 34.491108214903164,-74.39330248152598Q 0,0 -69.3410750618091,-43.77002752195325A82,82 0 0,1 -67.56007469909122,-46.471887272341284Q 0,0 31.52896392145634,-75.69626433344972Z" style="fill: url(#rad_gradient); opacity: 1;"/><path d="M34.491108214903164,-74.39330248152598A82,82 0 0,1 37.399535795820675,-72.97447993824358Q 0,0 -38.16611876827354,-72.57649328926018A82,82 0 0,1 -35.27279733481652,-74.02587228919995Q 0,0 34.491108214903164,-74.39330248152598Z" style="fill: url(#rad_gradient); opacity: 1;"/><path d="M56.51521948034857,-59.41405529912945A82,82 0 0,1 58.815470834727556,-57.13790677378103Q 0,0 56.51521948034857,-59.41405529912945Z" style="fill: url(#rad_gradient); opacity: 1;"/><path d="M46.47188727234054,-67.56007469909173A82,82 0 0,1 49.1013713543752,-65.67385576559158Q 0,0 78.65064341999977,-23.196471490725287A82,82 0 0,1 79.50464526530732,-20.075143367797597Q 0,0 46.47188727234054,-67.56007469909173Z" style="fill: url(#rad_gradient); opacity: 1;"/><path d="M49.1013713543752,-65.67385576559158A82,82 0 0,1 51.654384589680205,-63.68535587292737Q 0,0 79.71169097107386,19.23658812087026A82,82 0 0,1 78.89061420252514,22.366738491526224Q 0,0 49.1013713543752,-65.67385576559158Z" style="fill: url(#rad_gradient); opacity: 1;"/><path d="M51.654384589680205,-63.68535587292737A82,82 0 0,1 54.12695089615366,-61.597671925855806Q 0,0 59.414055299129444,56.51521948034859A82,82 0 0,1 57.13790677378102,58.815470834727584Q 0,0 51.654384589680205,-63.68535587292737Z" style="fill: url(#rad_gradient); opacity: 1;"/><path d="M54.12695089615366,-61.597671925855806A82,82 0 0,1 56.51521948034857,-59.41405529912945Q 0,0 23.196471490725088,78.65064341999982A82,82 0 0,1 20.07514336779736,79.50464526530737Q 0,0 54.12695089615366,-61.597671925855806Z" style="fill: url(#rad_gradient); opacity: 1;"/><path d="M41,-71.01408311032397A82,82 0 0,1 43.77002752195249,-69.34107506180958Q 0,0 -19.23658812087066,79.71169097107376A82,82 0 0,1 -22.366738491526643,78.89061420252503Q 0,0 41,-71.01408311032397Z" style="fill: url(#rad_gradient); opacity: 1;"/><path d="M58.815470834727556,-57.13790677378103A82,82 0 0,1 61.02412253045191,-54.772771240721255Q 0,0 -56.515219480348954,59.414055299129096A82,82 0 0,1 -58.81547083472794,57.13790677378066Q 0,0 58.815470834727556,-57.13790677378103Z" style="fill: url(#rad_gradient); opacity: 1;"/><path d="M61.02412253045191,-54.772771240721255A82,82 0 0,1 63.137734796683354,-52.322332179898844Q 0,0 -78.65064341999997,23.196471490724637A82,82 0 0,1 -79.50464526530749,20.075143367796905Q 0,0 61.02412253045191,-54.772771240721255Z" style="fill: url(#rad_gradient); opacity: 1;"/><path d="M63.137734796683354,-52.322332179898844A82,82 0 0,1 65.15301587770907,-49.79040592362125Q 0,0 -79.71169097107364,-19.236588120871115A82,82 0 0,1 -78.89061420252489,-22.36673849152709Q 0,0 63.137734796683354,-52.322332179898844Z" style="fill: url(#rad_gradient); opacity: 1;"/><path d="M65.15301587770907,-49.79040592362125A82,82 0 0,1 67.06682715954724,-47.18093571296986Q 0,0 -59.414055299128776,-56.51521948034929A82,82 0 0,1 -57.137906773780315,-58.815470834728266Q 0,0 65.15301587770907,-49.79040592362125Z" style="fill: url(#rad_gradient); opacity: 1;"/><path d="M67.06682715954724,-47.18093571296986A82,82 0 0,1 68.87618805804792,-44.497985556566476Q 0,0 -23.196471490724168,-78.65064342000011A82,82 0 0,1 -20.07514336779643,-79.5046452653076Q 0,0 67.06682715954724,-47.18093571296986Z" style="fill: url(#rad_gradient); opacity: 1;"/><path d="M74.02587228919948,-35.27279733481751A82,82 0 0,1 75.35996283633823,-32.324541780289856Q 0,0 74.02587228919948,-35.27279733481751Z" style="fill: url(#rad_gradient); opacity: 1;"/><path d="M75.35996283633823,-32.324541780289856A82,82 0 0,1 76.57668720797817,-29.325943740167528Q 0,0 81.74468460715802,6.465797590107705A82,82 0 0,1 81.42591313466504,9.6861070707466Q 0,0 75.35996283633823,-32.324541780289856Z" style="fill: url(#rad_gradient); opacity: 1;"/><path d="M76.57668720797817,-29.325943740167528A82,82 0 0,1 77.67415046838987,-26.28167325369385Q 0,0 67.56007469909176,46.47188727234048A82,82 0 0,1 65.6738557655916,49.10137135437517Q 0,0 76.57668720797817,-29.325943740167528Z" style="fill: url(#rad_gradient); opacity: 1;"/><path d="M77.67415046838987,-26.28167325369385A82,82 0 0,1 78.65064341999977,-23.196471490725287Q 0,0 35.27279733481738,74.02587228919954A82,82 0 0,1 32.324541780289714,75.35996283633831Q 0,0 77.67415046838987,-26.28167325369385Z" style="fill: url(#rad_gradient); opacity: 1;"/><path d="M71.01408311032395,-41.00000000000003A82,82 0 0,1 72.57649328925967,-38.16611876827451Q 0,0 -6.465797590108044,81.74468460715799A82,82 0 0,1 -9.686107070746957,81.42591313466501Q 0,0 71.01408311032395,-41.00000000000003Z" style="fill: url(#rad_gradient); opacity: 1;"/><path d="M79.50464526530732,-20.075143367797597A82,82 0 0,1 80.23482597538631,-16.922550064912393Q 0,0 -46.4718872723409,67.56007469909147A82,82 0 0,1 -49.10137135437557,65.67385576559131Q 0,0 79.50464526530732,-20.075143367797597Z" style="fill: url(#rad_gradient); opacity: 1;"/><path d="M80.23482597538631,-16.922550064912393A82,82 0 0,1 80.84004836128193,-13.743601454698798Q 0,0 -74.02587228919974,35.27279733481695A82,82 0 0,1 -75.35996283633848,32.32454178028927Q 0,0 80.23482597538631,-16.922550064912393Z" style="fill: url(#rad_gradient); opacity: 1;"/><path d="M80.84004836128193,-13.743601454698798A82,82 0 0,1 81.31936984507755,-10.543248455740699Q 0,0 -81.74468460715795,-6.465797590108512A82,82 0 0,1 -81.42591313466495,-9.686107070747422Q 0,0 80.84004836128193,-13.743601454698798Z" style="fill: url(#rad_gradient); opacity: 1;"/><path d="M81.31936984507755,-10.543248455740699A82,82 0 0,1 81.67204392787299,-7.32647532197877Q 0,0 -67.56007469909122,-46.471887272341284A82,82 0 0,1 -65.67385576559101,-49.10137135437595Q 0,0 81.31936984507755,-10.543248455740699Z" style="fill: url(#rad_gradient); opacity: 1;"/><path d="M81.67204392787299,-7.32647532197877A82,82 0 0,1 81.89752135238716,-4.098291880195671Q 0,0 -35.27279733481652,-74.02587228919995A82,82 0 0,1 -32.32454178028883,-75.35996283633868Q 0,0 81.67204392787299,-7.32647532197877Z" style="fill: url(#rad_gradient); opacity: 1;"/><path d="M81.42591313466504,9.6861070707466A82,82 0 0,1 80.98032832984771,12.89133133505074Q 0,0 81.42591313466504,9.6861070707466Z" style="fill: url(#rad_gradient); opacity: 1;"/><path d="M80.98032832984771,12.89133133505074A82,82 0 0,1 80.4086241498475,16.076478542534Q 0,0 65.6738557655916,49.10137135437517A82,82 0 0,1 63.68535587292738,51.6543845896802Q 0,0 80.98032832984771,12.89133133505074Z" style="fill: url(#rad_gradient); opacity: 1;"/><path d="M80.4086241498475,16.076478542534A82,82 0 0,1 79.71169097107386,19.23658812087026Q 0,0 32.324541780289714,75.35996283633831A82,82 0 0,1 29.325943740167354,76.57668720797824Q 0,0 80.4086241498475,16.076478542534Z" style="fill: url(#rad_gradient); opacity: 1;"/><path d="M82,-4.881155700679814e-14A82,82 0 0,1 81.93614629022696,3.2354182274500447Q 0,0 -9.686107070746957,81.42591313466501A82,82 0 0,1 -12.891331335051113,80.98032832984765Q 0,0 82,-4.881155700679814e-14Z" style="fill: url(#rad_gradient); opacity: 1;"/><path d="M78.89061420252514,22.366738491526224A82,82 0 0,1 77.94667259536429,25.462054734665003Q 0,0 -49.10137135437557,65.67385576559131A82,82 0 0,1 -51.654384589680575,63.685355872927076Q 0,0 78.89061420252514,22.366738491526224Z" style="fill: url(#rad_gradient); opacity: 1;"/><path d="M77.94667259536429,25.462054734665003A82,82 0 0,1 76.88133625138214,28.51771618138301Q 0,0 -75.35996283633848,32.32454178028927A82,82 0 0,1 -76.57668720797841,29.325943740166917Q 0,0 77.94667259536429,25.462054734665003Z" style="fill: url(#rad_gradient); opacity: 1;"/><path d="M76.88133625138214,28.51771618138301A82,82 0 0,1 75.69626433344976,31.528963921456253Q 0,0 -81.42591313466495,-9.686107070747422A82,82 0 0,1 -80.98032832984758,-12.891331335051575Q 0,0 76.88133625138214,28.51771618138301Z" style="fill: url(#rad_gradient); opacity: 1;"/><path d="M75.69626433344976,31.528963921456253A82,82 0 0,1 74.39330248152602,34.49110821490308Q 0,0 -65.67385576559101,-49.10137135437595A82,82 0 0,1 -63.68535587292677,-51.65438458968095Q 0,0 75.69626433344976,31.528963921456253Z" style="fill: url(#rad_gradient); opacity: 1;"/><path d="M74.39330248152602,34.49110821490308A82,82 0 0,1 72.97447993824362,37.39953579582061Q 0,0 -32.32454178028883,-75.35996283633868A82,82 0 0,1 -29.325943740166462,-76.57668720797858Q 0,0 74.39330248152602,34.49110821490308Z" style="fill: url(#rad_gradient); opacity: 1;"/><path d="M63.68535587292738,51.6543845896802A82,82 0 0,1 61.59767192585581,54.12695089615366Q 0,0 63.68535587292738,51.6543845896802Z" style="fill: url(#rad_gradient); opacity: 1;"/><path d="M61.59767192585581,54.12695089615366A82,82 0 0,1 59.414055299129444,56.51521948034859Q 0,0 29.325943740167354,76.57668720797824A82,82 0 0,1 26.281673253693665,77.67415046838994Q 0,0 61.59767192585581,54.12695089615366Z" style="fill: url(#rad_gradient); opacity: 1;"/><path d="M71.01408311032402,40.99999999999993A82,82 0 0,1 69.34107506180962,43.77002752195243Q 0,0 -12.891331335051113,80.98032832984765A82,82 0 0,1 -16.07647854253439,80.40862414984743Q 0,0 71.01408311032402,40.99999999999993Z" style="fill: url(#rad_gradient); opacity: 1;"/><path d="M57.13790677378102,58.815470834727584A82,82 0 0,1 54.77277124072122,61.024122530451955Q 0,0 -51.654384589680575,63.685355872927076A82,82 0 0,1 -54.12695089615404,61.59767192585548Q 0,0 57.13790677378102,58.815470834727584Z" style="fill: url(#rad_gradient); opacity: 1;"/><path d="M54.77277124072122,61.024122530451955A82,82 0 0,1 52.3223321798988,63.1377347966834Q 0,0 -76.57668720797841,29.325943740166917A82,82 0 0,1 -77.67415046839008,26.281673253693214Q 0,0 54.77277124072122,61.024122530451955Z" style="fill: url(#rad_gradient); opacity: 1;"/><path d="M52.3223321798988,63.1377347966834A82,82 0 0,1 49.790405923621186,65.15301587770912Q 0,0 -80.98032832984758,-12.891331335051575A82,82 0 0,1 -80.40862414984734,-16.076478542534847Q 0,0 52.3223321798988,63.1377347966834Z" style="fill: url(#rad_gradient); opacity: 1;"/><path d="M49.790405923621186,65.15301587770912A82,82 0 0,1 47.180935712969784,67.06682715954732Q 0,0 -63.68535587292677,-51.65438458968095A82,82 0 0,1 -61.59767192585517,-54.1269508961544Q 0,0 49.790405923621186,65.15301587770912Z" style="fill: url(#rad_gradient); opacity: 1;"/><path d="M47.180935712969784,67.06682715954732A82,82 0 0,1 44.497985556566384,68.876188058048Q 0,0 -29.325943740166462,-76.57668720797858A82,82 0 0,1 -26.28167325369276,-77.67415046839024Q 0,0 47.180935712969784,67.06682715954732Z" style="fill: url(#rad_gradient); opacity: 1;"/><path d="M26.281673253693665,77.67415046838994A82,82 0 0,1 23.196471490725088,78.65064341999982Q 0,0 26.281673253693665,77.67415046838994Z" style="fill: url(#rad_gradient); opacity: 1;"/><path d="M40.99999999999993,71.01408311032402A82,82 0 0,1 38.16611876827439,72.57649328925974Q 0,0 -16.07647854253439,80.40862414984743A82,82 0 0,1 -19.23658812087066,79.71169097107376Q 0,0 40.99999999999993,71.01408311032402Z" style="fill: url(#rad_gradient); opacity: 1;"/><path d="M20.07514336779736,79.50464526530737A82,82 0 0,1 16.922550064912137,80.23482597538636Q 0,0 -54.12695089615404,61.59767192585548A82,82 0 0,1 -56.515219480348954,59.414055299129096Q 0,0 20.07514336779736,79.50464526530737Z" style="fill: url(#rad_gradient); opacity: 1;"/><path d="M16.922550064912137,80.23482597538636A82,82 0 0,1 13.743601454698524,80.84004836128197Q 0,0 -77.67415046839008,26.281673253693214A82,82 0 0,1 -78.65064341999997,23.196471490724637Q 0,0 16.922550064912137,80.23482597538636Z" style="fill: url(#rad_gradient); opacity: 1;"/><path d="M13.743601454698524,80.84004836128197A82,82 0 0,1 10.543248455740407,81.31936984507759Q 0,0 -80.40862414984734,-16.076478542534847A82,82 0 0,1 -79.71169097107364,-19.236588120871115Q 0,0 13.743601454698524,80.84004836128197Z" style="fill: url(#rad_gradient); opacity: 1;"/><path d="M10.543248455740407,81.31936984507759A82,82 0 0,1 7.326475321978463,81.67204392787302Q 0,0 -61.59767192585517,-54.1269508961544A82,82 0 0,1 -59.414055299128776,-56.51521948034929Q 0,0 10.543248455740407,81.31936984507759Z" style="fill: url(#rad_gradient); opacity: 1;"/><path d="M7.326475321978463,81.67204392787302A82,82 0 0,1 4.098291880195346,81.89752135238716Q 0,0 -26.28167325369276,-77.67415046839024A82,82 0 0,1 -23.196471490724168,-78.65064342000011Q 0,0 7.326475321978463,81.67204392787302Z" style="fill: url(#rad_gradient); opacity: 1;"/><path d="M-2.498861545787804e-13,82A82,82 0 0,1 -3.235418227450367,81.93614629022696Q 0,0 -2.498861545787804e-13,82Z" style="fill: url(#rad_gradient); opacity: 1;"/><path d="M-22.366738491526643,78.89061420252503A82,82 0 0,1 -25.46205473466543,77.94667259536415Q 0,0 -41.000000000000355,71.01408311032377A82,82 0 0,1 -43.770027521952855,69.34107506180936Q 0,0 -22.366738491526643,78.89061420252503Z" style="fill: url(#rad_gradient); opacity: 1;"/><path d="M-25.46205473466543,77.94667259536415A82,82 0 0,1 -28.51771618138345,76.88133625138198Q 0,0 -71.01408311032425,40.999999999999524A82,82 0 0,1 -72.57649328925996,38.166118768273975Q 0,0 -25.46205473466543,77.94667259536415Z" style="fill: url(#rad_gradient); opacity: 1;"/><path d="M-28.51771618138345,76.88133625138198A82,82 0 0,1 -31.528963921456704,75.69626433344958Q 0,0 -82,-7.182642004037916e-13A82,82 0 0,1 -81.93614629022694,-3.2354182274508347Q 0,0 -28.51771618138345,76.88133625138198Z" style="fill: url(#rad_gradient); opacity: 1;"/><path d="M-31.528963921456704,75.69626433344958A82,82 0 0,1 -34.491108214903534,74.39330248152581Q 0,0 -71.01408311032354,-41.00000000000077A82,82 0 0,1 -69.3410750618091,-43.77002752195325Q 0,0 -31.528963921456704,75.69626433344958Z" style="fill: url(#rad_gradient); opacity: 1;"/><path d="M-34.491108214903534,74.39330248152581A82,82 0 0,1 -37.399535795821066,72.97447993824338Q 0,0 -40.99999999999908,-71.0140831103245A82,82 0 0,1 -38.16611876827354,-72.57649328926018Q 0,0 -34.491108214903534,74.39330248152581Z" style="fill: url(#rad_gradient); opacity: 1;"/><path d="M-58.81547083472794,57.13790677378066A82,82 0 0,1 -61.02412253045228,54.77277124072085Q 0,0 -58.81547083472794,57.13790677378066Z" style="fill: url(#rad_gradient); opacity: 1;"/><path d="M-61.02412253045228,54.77277124072085A82,82 0 0,1 -63.13773479668369,52.322332179898446Q 0,0 -79.50464526530749,20.075143367796905A82,82 0 0,1 -80.23482597538646,16.922550064911675Q 0,0 -61.02412253045228,54.77277124072085Z" style="fill: url(#rad_gradient); opacity: 1;"/><path d="M-63.13773479668369,52.322332179898446A82,82 0 0,1 -65.15301587770941,49.79040592362081Q 0,0 -78.89061420252489,-22.36673849152709A82,82 0 0,1 -77.946672595364,-25.462054734665877Q 0,0 -63.13773479668369,52.322332179898446Z" style="fill: url(#rad_gradient); opacity: 1;"/><path d="M-65.15301587770941,49.79040592362081A82,82 0 0,1 -67.06682715954759,47.180935712969394Q 0,0 -57.137906773780315,-58.815470834728266A82,82 0 0,1 -54.772771240720495,-61.0241225304526Q 0,0 -65.15301587770941,49.79040592362081Z" style="fill: url(#rad_gradient); opacity: 1;"/><path d="M-67.06682715954759,47.180935712969394A82,82 0 0,1 -68.87618805804826,44.49798555656599Q 0,0 -20.07514336779643,-79.5046452653076A82,82 0 0,1 -16.9225500649112,-80.23482597538657Q 0,0 -67.06682715954759,47.180935712969394Z" style="fill: url(#rad_gradient); opacity: 1;"/><path d="M-80.23482597538646,16.922550064911675A82,82 0 0,1 -80.84004836128204,13.74360145469806Q 0,0 -80.23482597538646,16.922550064911675Z" style="fill: url(#rad_gradient); opacity: 1;"/><path d="M-80.84004836128204,13.74360145469806A82,82 0 0,1 -81.31936984507766,10.54324845573994Q 0,0 -77.946672595364,-25.462054734665877A82,82 0 0,1 -76.88133625138181,-28.517716181383893Q 0,0 -80.84004836128204,13.74360145469806Z" style="fill: url(#rad_gradient); opacity: 1;"/><path d="M-81.31936984507766,10.54324845573994A82,82 0 0,1 -81.67204392787305,7.326475321977992Q 0,0 -54.772771240720495,-61.0241225304526A82,82 0 0,1 -52.322332179898055,-63.13773479668403Q 0,0 -81.31936984507766,10.54324845573994Z" style="fill: url(#rad_gradient); opacity: 1;"/><path d="M-81.67204392787305,7.326475321977992A82,82 0 0,1 -81.89752135238719,4.098291880194875Q 0,0 -16.9225500649112,-80.23482597538657A82,82 0 0,1 -13.743601454697577,-80.84004836128213Q 0,0 -81.67204392787305,7.326475321977992Z" style="fill: url(#rad_gradient); opacity: 1;"/><path d="M-76.88133625138181,-28.517716181383893A82,82 0 0,1 -75.69626433344939,-31.528963921457134Q 0,0 -76.88133625138181,-28.517716181383893Z" style="fill: url(#rad_gradient); opacity: 1;"/><path d="M-75.69626433344939,-31.528963921457134A82,82 0 0,1 -74.39330248152561,-34.49110821490396Q 0,0 -52.322332179898055,-63.13773479668403A82,82 0 0,1 -49.79040592362041,-65.1530158777097Q 0,0 -75.69626433344939,-31.528963921457134Z" style="fill: url(#rad_gradient); opacity: 1;"/><path d="M-74.39330248152561,-34.49110821490396A82,82 0 0,1 -72.97447993824315,-37.399535795821485Q 0,0 -13.743601454697577,-80.84004836128213A82,82 0 0,1 -10.543248455739455,-81.31936984507772Q 0,0 -74.39330248152561,-34.49110821490396Z" style="fill: url(#rad_gradient); opacity: 1;"/><path d="M-49.79040592362041,-65.1530158777097A82,82 0 0,1 -47.18093571296898,-67.06682715954787Q 0,0 -49.79040592362041,-65.1530158777097Z" style="fill: url(#rad_gradient); opacity: 1;"/><path d="M-47.18093571296898,-67.06682715954787A82,82 0 0,1 -44.49798555656557,-68.87618805804853Q 0,0 -10.543248455739455,-81.31936984507772A82,82 0 0,1 -7.326475321977507,-81.6720439278731Q 0,0 -47.18093571296898,-67.06682715954787Z" style="fill: url(#rad_gradient); opacity: 1;"/><path d="M-7.326475321977507,-81.6720439278731A82,82 0 0,1 -4.098291880194387,-81.8975213523872Q 0,0 -7.326475321977507,-81.6720439278731Z" style="fill: url(#rad_gradient); opacity: 1;"/></g></g></svg>