<?xml version="1.0" encoding="utf-8"?>
<!-- Generator: Adobe Illustrator 15.0.0, SVG Export Plug-In . SVG Version: 6.00 Build 0)  -->
<!DOCTYPE svg PUBLIC "-//W3C//DTD SVG 1.1//EN" "http://www.w3.org/Graphics/SVG/1.1/DTD/svg11.dtd">
<svg version="1.1" id="Layer_1" xmlns="http://www.w3.org/2000/svg" xmlns:xlink="http://www.w3.org/1999/xlink" x="0px" y="0px"
	 width="960px" height="200px" viewBox="0 0 960 200" enable-background="new 0 0 960 200" xml:space="preserve">
<circle fill="#FFFAC2" stroke="#000000" stroke-width="0.25" cx="480.002" cy="100.001" r="84.049"/>
<defs  xmlns="http://www.w3.org/1999/xhtml">
	<style  type="text/css">
		<![CDATA[
body { font-style: normal; font-variant: normal; font-weight: normal; font-size: 10px; line-height: normal; font-family: sans-serif; }
.chord path { fill-opacity: 0.67; stroke: rgb(0, 0, 0); stroke-width: 0.5px; }
.chord path { fill-opacity: 1; stroke: rgb(0, 0, 0); stroke-width: 0.5px; }
			]]>
	</style>
</defs>
<g>
	<path fill="#008A00" stroke="#008A00" stroke-width="0.25" d="M480,15.95c13.331,0,26.471,3.171,38.335,9.251l-0.936,1.824
		C505.825,21.094,493.006,18,480,18V15.95z"/>
	<path fill="#008A00" stroke="#008A00" stroke-width="0.25" d="M522.025,27.21c11.545,6.666,21.339,15.982,28.572,27.179
		l-1.722,1.112C541.818,44.578,532.264,35.489,521,28.986L522.025,27.21z"/>
	<path fill="#008A00" stroke="#008A00" stroke-width="0.25" d="M552.789,57.975c6.666,11.545,10.489,24.51,11.156,37.824
		l-2.048,0.103c-0.65-12.99-4.381-25.638-10.884-36.902L552.789,57.975z"/>
	<path fill="#008A00" stroke="#008A00" stroke-width="0.25" d="M564.05,100c0,13.331-3.171,26.471-9.251,38.334l-1.824-0.935
		C558.906,125.825,562,113.006,562,100H564.05z"/>
	<path fill="#008A00" stroke="#008A00" stroke-width="0.25" d="M552.789,142.025c-6.665,11.545-15.981,21.338-27.179,28.572
		l-1.112-1.722c10.924-7.058,20.013-16.612,26.516-27.876L552.789,142.025z"/>
	<path fill="#008A00" stroke="#008A00" stroke-width="0.25" d="M522.025,172.789c-11.545,6.666-24.511,10.49-37.824,11.156
		l-0.103-2.048c12.989-0.649,25.638-4.38,36.901-10.884L522.025,172.789z"/>
	<path fill="#008A00" stroke="#008A00" stroke-width="0.25" d="M480,184.05c-13.331,0-26.471-3.171-38.335-9.251l0.936-1.824
		C454.175,178.906,466.994,182,480,182V184.05z"/>
	<path fill="#008A00" stroke="#008A00" stroke-width="0.25" d="M437.975,172.789c-11.545-6.665-21.339-15.981-28.572-27.179
		l1.722-1.112c7.058,10.924,16.612,20.014,27.876,26.516L437.975,172.789z"/>
	<path fill="#008A00" stroke="#008A00" stroke-width="0.25" d="M407.211,142.025c-6.666-11.545-10.489-24.51-11.156-37.824
		l2.048-0.104c0.65,12.99,4.381,25.639,10.884,36.902L407.211,142.025z"/>
	<path fill="#008A00" stroke="#008A00" stroke-width="0.25" d="M395.95,100c0-13.331,3.171-26.471,9.251-38.334l1.824,0.935
		C401.094,74.175,398,86.994,398,100H395.95z"/>
	<path fill="#008A00" stroke="#008A00" stroke-width="0.25" d="M407.211,57.975c6.665-11.545,15.981-21.339,27.179-28.573
		l1.112,1.722C424.578,38.182,415.489,47.736,408.986,59L407.211,57.975z"/>
	<path fill="#008A00" stroke="#008A00" stroke-width="0.25" d="M437.975,27.21c11.545-6.666,24.511-10.489,37.824-11.155
		l0.103,2.047c-12.989,0.65-25.638,4.38-36.901,10.883L437.975,27.21z"/>
</g>
<g>
	<g>
		<g transform="rotate(-90)translate(84.05,0)">
		</g>
	</g>
	<g>
		<g transform="rotate(-60)translate(84.05,0)">
		</g>
	</g>
	<g>
		<g transform="rotate(-30.000000000000014)translate(84.05,0)">
		</g>
	</g>
	<g>
		<g transform="rotate(-2.842170943040401e-14)translate(84.05,0)">
		</g>
	</g>
	<g>
		<g transform="rotate(29.999999999999943)translate(84.05,0)">
		</g>
	</g>
	<g>
		<g transform="rotate(60.00000000000006)translate(84.05,0)">
		</g>
	</g>
	<g>
		<g transform="rotate(90.0000000000002)translate(84.05,0)">
		</g>
	</g>
	<g>
		<g transform="rotate(120.00000000000031)translate(84.05,0)">
		</g>
	</g>
	<g>
		<g transform="rotate(150.00000000000037)translate(84.05,0)">
		</g>
	</g>
	<g>
		<g transform="rotate(180.0000000000005)translate(84.05,0)">
		</g>
	</g>
	<g>
		<g transform="rotate(210.00000000000063)translate(84.05,0)">
		</g>
	</g>
	<g>
		<g transform="rotate(240.00000000000074)translate(84.05,0)">
		</g>
	</g>
</g>
<radialGradient id="SVGID_1_" cx="134.508" cy="488.7961" r="0.7496" gradientTransform="matrix(4.3094 0 0 -41.016 -95.3366 20087.0117)" gradientUnits="userSpaceOnUse">
	<stop  offset="0" style="stop-color:#008A00"/>
	<stop  offset="1" style="stop-color:#FFFFFF;stop-opacity:0.2"/>
</radialGradient>
<path fill="url(#SVGID_1_)" stroke="#000000" stroke-width="0.25" d="M483.236,18.064c1.078,0.042,2.155,0.106,3.23,0.191
	C482.155,72.752,481.078,72.688,483.236,18.064z"/>
<radialGradient id="SVGID_2_" cx="169.6906" cy="489.1516" r="0.75" gradientTransform="matrix(32.8669 0 0 -43.1444 -5067.1758 21145.9922)" gradientUnits="userSpaceOnUse">
	<stop  offset="0" style="stop-color:#008A00"/>
	<stop  offset="1" style="stop-color:#FFFFFF;stop-opacity:0.2"/>
</radialGradient>
<path fill="url(#SVGID_2_)" stroke="#000000" stroke-width="0.25" d="M499.236,20.288c1.049,0.253,2.093,0.527,3.131,0.821
	c-14.912,52.594-7.777,55.777,21.402,9.55c0.913,0.576,1.813,1.169,2.702,1.781C495.49,77.48,486.412,73.43,499.236,20.288z"/>
<radialGradient id="SVGID_3_" cx="172.4372" cy="490.8254" r="0.75" gradientTransform="matrix(68.0795 0 0 -57.1042 -11219.4385 28075.0117)" gradientUnits="userSpaceOnUse">
	<stop  offset="0" style="stop-color:#008A00"/>
	<stop  offset="1" style="stop-color:#FFFFFF;stop-opacity:0.2"/>
</radialGradient>
<path fill="url(#SVGID_3_)" stroke="#000000" stroke-width="0.25" d="M486.466,18.256c1.075,0.085,2.149,0.191,3.221,0.319
	c-6.458,54.284,14.506,68.704,62.89,43.26c0.502,0.955,0.985,1.919,1.449,2.893C504.676,88.242,482.155,72.752,486.466,18.256z"/>
<radialGradient id="SVGID_4_" cx="172.6183" cy="492.6379" r="0.7504" gradientTransform="matrix(73.2762 0 0 -87.8917 -12123.5176 43361.3125)" gradientUnits="userSpaceOnUse">
	<stop  offset="0" style="stop-color:#008A00"/>
	<stop  offset="1" style="stop-color:#FFFFFF;stop-opacity:0.2"/>
</radialGradient>
<path fill="url(#SVGID_4_)" stroke="#000000" stroke-width="0.25" d="M489.687,18.574c1.071,0.127,2.14,0.276,3.205,0.445
	c-8.595,53.987,14.421,82.059,69.045,84.216c-0.043,1.078-0.106,2.155-0.191,3.23C507.248,102.155,483.229,72.858,489.687,18.574z"
	/>
<radialGradient id="SVGID_5_" cx="172.0182" cy="493.6818" r="0.75" gradientTransform="matrix(58.5154 0 0 -127.4522 -9545.6367 63003.5508)" gradientUnits="userSpaceOnUse">
	<stop  offset="0" style="stop-color:#008A00"/>
	<stop  offset="1" style="stop-color:#FFFFFF;stop-opacity:0.2"/>
</radialGradient>
<path fill="url(#SVGID_5_)" stroke="#000000" stroke-width="0.25" d="M492.892,19.02c1.065,0.17,2.127,0.36,3.185,0.572
	c-10.718,53.606,7.037,94.999,53.265,124.178c-0.575,0.912-1.169,1.813-1.78,2.702C502.52,115.49,484.297,73.007,492.892,19.02z"/>
<radialGradient id="SVGID_6_" cx="168.5666" cy="494.0871" r="0.7493" gradientTransform="matrix(27.1229 0 0 -154.4345 -4067.3992 76400.8828)" gradientUnits="userSpaceOnUse">
	<stop  offset="0" style="stop-color:#008A00"/>
	<stop  offset="1" style="stop-color:#FFFFFF;stop-opacity:0.2"/>
</radialGradient>
<path fill="url(#SVGID_6_)" stroke="#000000" stroke-width="0.25" d="M496.076,19.591c1.059,0.211,2.111,0.444,3.16,0.697
	c-12.824,53.142-6.515,103.904,18.93,152.288c-0.955,0.502-1.919,0.986-2.894,1.449C491.758,124.676,485.359,73.197,496.076,19.591z
	"/>
<radialGradient id="SVGID_7_" cx="157.0133" cy="494.1974" r="0.7496" gradientTransform="matrix(9.7012 0 0 -163.9362 -1044.8323 81116.8359)" gradientUnits="userSpaceOnUse">
	<stop  offset="0" style="stop-color:#008A00"/>
	<stop  offset="1" style="stop-color:#FFFFFF;stop-opacity:0.2"/>
</radialGradient>
<path fill="url(#SVGID_7_)" stroke="#000000" stroke-width="0.25" d="M480,18c1.079,0,2.157,0.021,3.235,0.064
	c-2.157,54.624-4.313,109.249-6.471,163.872c-1.078-0.042-2.155-0.105-3.23-0.191C477.845,127.248,480,72.667,480,18z"/>
<radialGradient id="SVGID_8_" cx="172.5744" cy="494.006" r="0.75" gradientTransform="matrix(71.9339 0 0 -148.2317 -11944.4844 73322.6875)" gradientUnits="userSpaceOnUse">
	<stop  offset="0" style="stop-color:#008A00"/>
	<stop  offset="1" style="stop-color:#FFFFFF;stop-opacity:0.2"/>
</radialGradient>
<path fill="url(#SVGID_8_)" stroke="#000000" stroke-width="0.25" d="M502.367,21.11c1.037,0.294,2.069,0.609,3.095,0.944
	c-16.975,51.964-40.052,101.06-69.231,147.288c-0.913-0.575-1.813-1.169-2.702-1.78C464.51,122.52,487.455,73.703,502.367,21.11z"/>
<radialGradient id="SVGID_9_" cx="173.298" cy="493.4543" r="0.7504" gradientTransform="matrix(102.5436 0 0 -116.1128 -17313.3711 57376.5859)" gradientUnits="userSpaceOnUse">
	<stop  offset="0" style="stop-color:#008A00"/>
	<stop  offset="1" style="stop-color:#FFFFFF;stop-opacity:0.2"/>
</radialGradient>
<path fill="url(#SVGID_9_)" stroke="#000000" stroke-width="0.25" d="M505.462,22.053c1.025,0.335,2.044,0.69,3.056,1.065
	c-19.012,51.254-52.71,89.604-101.094,115.047c-0.502-0.955-0.985-1.92-1.449-2.893C455.324,111.758,488.487,74.018,505.462,22.053z
	"/>
<radialGradient id="SVGID_10_" cx="173.4626" cy="491.9953" r="0.7489" gradientTransform="matrix(113.4651 0 0 -73.7785 -19227.1172 36358.6836)" gradientUnits="userSpaceOnUse">
	<stop  offset="0" style="stop-color:#008A00"/>
	<stop  offset="1" style="stop-color:#FFFFFF;stop-opacity:0.2"/>
</radialGradient>
<path fill="url(#SVGID_10_)" stroke="#000000" stroke-width="0.25" d="M508.518,23.119c1.012,0.375,2.016,0.77,3.012,1.185
	c-21.02,50.464-58.842,74.618-113.466,72.461c0.043-1.078,0.106-2.155,0.191-3.23C452.752,97.845,489.506,74.373,508.518,23.119z"/>
<radialGradient id="SVGID_11_" cx="173.3205" cy="489.8625" r="0.7496" gradientTransform="matrix(103.8322 0 0 -48.1395 -17533.5449 23630.0918)" gradientUnits="userSpaceOnUse">
	<stop  offset="0" style="stop-color:#008A00"/>
	<stop  offset="1" style="stop-color:#FFFFFF;stop-opacity:0.2"/>
</radialGradient>
<path fill="url(#SVGID_11_)" stroke="#000000" stroke-width="0.25" d="M511.529,24.304c0.995,0.415,1.983,0.849,2.962,1.303
	C491.497,75.202,456.887,85.41,410.659,56.23c0.575-0.912,1.169-1.813,1.78-2.702C457.481,84.509,490.51,74.768,511.529,24.304z"/>
<radialGradient id="SVGID_12_" cx="172.6916" cy="488.2238" r="0.7504" gradientTransform="matrix(75.5657 0 0 -38.0056 -12569.9062 18599.8574)" gradientUnits="userSpaceOnUse">
	<stop  offset="0" style="stop-color:#008A00"/>
	<stop  offset="1" style="stop-color:#FFFFFF;stop-opacity:0.2"/>
</radialGradient>
<path fill="url(#SVGID_12_)" stroke="#000000" stroke-width="0.25" d="M514.491,25.607c0.979,0.454,1.948,0.927,2.908,1.419
	c-24.933,48.65-50.121,48.782-75.565,0.398c0.955-0.502,1.919-0.985,2.894-1.449C468.242,75.325,491.497,75.202,514.491,25.607z"/>
<radialGradient id="SVGID_13_" cx="169.1813" cy="486.2443" r="0.7507" gradientTransform="matrix(29.9943 0 0 -30.2872 -4550.6758 14782.6816)" gradientUnits="userSpaceOnUse">
	<stop  offset="0" style="stop-color:#008A00"/>
	<stop  offset="1" style="stop-color:#FFFFFF;stop-opacity:0.2"/>
</radialGradient>
<path fill="url(#SVGID_13_)" stroke="#000000" stroke-width="0.25" d="M536.516,40.586c0.781,0.744,1.548,1.502,2.3,2.276
	C499.606,80.954,498.839,80.195,536.516,40.586z"/>
<radialGradient id="SVGID_14_" cx="171.5216" cy="490.3264" r="0.7507" gradientTransform="matrix(50.1759 0 0 -52.0837 -8071.8623 25596.4883)" gradientUnits="userSpaceOnUse">
	<stop  offset="0" style="stop-color:#008A00"/>
	<stop  offset="1" style="stop-color:#FFFFFF;stop-opacity:0.2"/>
</radialGradient>
<path fill="url(#SVGID_14_)" stroke="#000000" stroke-width="0.25" d="M526.472,32.44c0.889,0.611,1.766,1.24,2.63,1.886
	c-32.734,43.783-22.885,57.941,29.549,42.478c0.306,1.035,0.59,2.075,0.854,3.121C506.502,93.308,495.49,77.48,526.472,32.44z"/>
<radialGradient id="SVGID_15_" cx="171.4713" cy="492.6437" r="0.7507" gradientTransform="matrix(49.447 0 0 -88.0406 -7943.7588 43450.9844)" gradientUnits="userSpaceOnUse">
	<stop  offset="0" style="stop-color:#008A00"/>
	<stop  offset="1" style="stop-color:#FFFFFF;stop-opacity:0.2"/>
</radialGradient>
<path fill="url(#SVGID_15_)" stroke="#000000" stroke-width="0.25" d="M529.102,34.326c0.864,0.646,1.715,1.309,2.553,1.988
	c-34.436,42.457-25.084,70.098,28.058,82.922c-0.253,1.049-0.527,2.093-0.821,3.131C506.297,107.455,496.367,78.109,529.102,34.326z
	"/>
<radialGradient id="SVGID_16_" cx="169.5949" cy="493.5891" r="0.7496" gradientTransform="matrix(32.2851 0 0 -122.5008 -4952.1265 60562.5547)" gradientUnits="userSpaceOnUse">
	<stop  offset="0" style="stop-color:#008A00"/>
	<stop  offset="1" style="stop-color:#FFFFFF;stop-opacity:0.2"/>
</radialGradient>
<path fill="url(#SVGID_16_)" stroke="#000000" stroke-width="0.25" d="M531.654,36.315c0.838,0.68,1.662,1.376,2.473,2.088
	c-36.085,41.065-34.322,80.436,5.287,118.113c-0.743,0.781-1.502,1.549-2.276,2.3C499.046,119.606,497.218,78.772,531.654,36.315z"
	/>
<radialGradient id="SVGID_17_" cx="170.8327" cy="493.9055" r="0.75" gradientTransform="matrix(41.8713 0 0 -141.1023 -6637.3999 69800.2031)" gradientUnits="userSpaceOnUse">
	<stop  offset="0" style="stop-color:#008A00"/>
	<stop  offset="1" style="stop-color:#FFFFFF;stop-opacity:0.2"/>
</radialGradient>
<path fill="url(#SVGID_17_)" stroke="#000000" stroke-width="0.25" d="M534.127,38.403c0.811,0.712,1.606,1.44,2.389,2.184
	c-37.677,39.609-48.783,85.631-33.319,138.064c-1.034,0.306-2.075,0.59-3.121,0.854C486.692,126.502,498.042,79.467,534.127,38.403z
	"/>
<radialGradient id="SVGID_18_" cx="172.3615" cy="494.0392" r="0.75" gradientTransform="matrix(66.1368 0 0 -150.7258 -10908.751 74568.875)" gradientUnits="userSpaceOnUse">
	<stop  offset="0" style="stop-color:#008A00"/>
	<stop  offset="1" style="stop-color:#FFFFFF;stop-opacity:0.2"/>
</radialGradient>
<path fill="url(#SVGID_18_)" stroke="#000000" stroke-width="0.25" d="M521,28.986c0.935,0.54,1.857,1.097,2.77,1.673
	c-29.18,46.227-50.182,95.911-63.006,149.053c-1.049-0.253-2.093-0.526-3.131-0.821C472.545,126.297,493.667,76.329,521,28.986z"/>
<radialGradient id="SVGID_19_" cx="173.5441" cy="493.4641" r="0.7507" gradientTransform="matrix(119.8396 0 0 -116.552 -20316.3418 57615.4414)" gradientUnits="userSpaceOnUse">
	<stop  offset="0" style="stop-color:#008A00"/>
	<stop  offset="1" style="stop-color:#FFFFFF;stop-opacity:0.2"/>
</radialGradient>
<path fill="url(#SVGID_19_)" stroke="#000000" stroke-width="0.25" d="M538.816,42.862c0.752,0.773,1.488,1.562,2.209,2.365
	c-40.683,36.515-79.863,74.578-117.54,114.187c-0.781-0.744-1.548-1.502-2.3-2.276C460.395,119.046,499.606,80.954,538.816,42.862z"
	/>
<radialGradient id="SVGID_20_" cx="173.7765" cy="492.2101" r="0.7504" gradientTransform="matrix(142.6424 0 0 -77.9692 -24316.1172 38461.4922)" gradientUnits="userSpaceOnUse">
	<stop  offset="0" style="stop-color:#008A00"/>
	<stop  offset="1" style="stop-color:#FFFFFF;stop-opacity:0.2"/>
</radialGradient>
<path fill="url(#SVGID_20_)" stroke="#000000" stroke-width="0.25" d="M541.025,45.227c0.721,0.803,1.425,1.62,2.113,2.451
	c-42.092,34.881-89.354,60.055-141.788,75.519c-0.306-1.034-0.59-2.075-0.854-3.121C453.498,106.692,500.342,81.742,541.025,45.227z
	"/>
<radialGradient id="SVGID_21_" cx="173.7956" cy="488.3146" r="0.75" gradientTransform="matrix(144.8647 0 0 -38.4466 -24704.1641 18840.9492)" gradientUnits="userSpaceOnUse">
	<stop  offset="0" style="stop-color:#008A00"/>
	<stop  offset="1" style="stop-color:#FFFFFF;stop-opacity:0.2"/>
</radialGradient>
<path fill="url(#SVGID_21_)" stroke="#000000" stroke-width="0.25" d="M543.138,47.678c0.688,0.831,1.36,1.675,2.016,2.532
	c-43.436,33.194-91.724,43.378-144.865,30.554c0.253-1.049,0.527-2.093,0.821-3.13C453.703,92.545,501.046,82.559,543.138,47.678z"
	/>
<radialGradient id="SVGID_22_" cx="173.6203" cy="487.0158" r="0.75" gradientTransform="matrix(126.4809 0 0 -32.8914 -21475.8711 16076.29)" gradientUnits="userSpaceOnUse">
	<stop  offset="0" style="stop-color:#008A00"/>
	<stop  offset="1" style="stop-color:#FFFFFF;stop-opacity:0.2"/>
</radialGradient>
<path fill="url(#SVGID_22_)" stroke="#000000" stroke-width="0.25" d="M545.153,50.21c0.654,0.857,1.293,1.727,1.913,2.61
	c-44.711,31.454-86.871,28.342-126.48-9.334c0.743-0.782,1.502-1.549,2.276-2.3C460.954,80.395,501.718,83.404,545.153,50.21z"/>
<radialGradient id="SVGID_23_" cx="173.1051" cy="490.216" r="0.75" gradientTransform="matrix(92.0727 0 0 -51.0854 -15435.3809 25088.8926)" gradientUnits="userSpaceOnUse">
	<stop  offset="0" style="stop-color:#008A00"/>
	<stop  offset="1" style="stop-color:#FFFFFF;stop-opacity:0.2"/>
</radialGradient>
<path fill="url(#SVGID_23_)" stroke="#000000" stroke-width="0.25" d="M547.067,52.82c0.621,0.882,1.225,1.776,1.81,2.683
	c-45.917,29.666-76.608,18.281-92.072-34.152c1.034-0.306,2.075-0.59,3.121-0.854C473.309,73.499,502.356,84.273,547.067,52.82z"/>
<radialGradient id="SVGID_24_" cx="170.4103" cy="479.9172" r="0.7504" gradientTransform="matrix(38.0165 0 0 -18.3735 -5942.0376 8891.6602)" gradientUnits="userSpaceOnUse">
	<stop  offset="0" style="stop-color:#008A00"/>
	<stop  offset="1" style="stop-color:#FFFFFF;stop-opacity:0.2"/>
</radialGradient>
<path fill="url(#SVGID_24_)" stroke="#000000" stroke-width="0.25" d="M554.026,64.727c0.465,0.974,0.909,1.957,1.335,2.948
	C505.12,89.225,504.676,88.242,554.026,64.727z"/>
<radialGradient id="SVGID_25_" cx="170.9044" cy="488.967" r="0.7493" gradientTransform="matrix(42.6069 0 0 -42.0107 -6741.2832 20630.4824)" gradientUnits="userSpaceOnUse">
	<stop  offset="0" style="stop-color:#008A00"/>
	<stop  offset="1" style="stop-color:#FFFFFF;stop-opacity:0.2"/>
</radialGradient>
<path fill="url(#SVGID_25_)" stroke="#000000" stroke-width="0.25" d="M555.36,67.675c0.425,0.992,0.83,1.991,1.216,2.999
	c-51.051,19.551-49.328,31.481,5.169,35.792c-0.086,1.075-0.191,2.149-0.319,3.22C507.142,103.229,505.12,89.225,555.36,67.675z"/>
<radialGradient id="SVGID_26_" cx="170.8771" cy="492.2326" r="0.75" gradientTransform="matrix(42.3204 0 0 -78.4273 -6695.0771 38714.3633)" gradientUnits="userSpaceOnUse">
	<stop  offset="0" style="stop-color:#008A00"/>
	<stop  offset="1" style="stop-color:#FFFFFF;stop-opacity:0.2"/>
</radialGradient>
<path fill="url(#SVGID_26_)" stroke="#000000" stroke-width="0.25" d="M556.576,70.674c0.387,1.008,0.752,2.022,1.098,3.044
	c-51.782,17.521-55.154,41.772-10.113,72.753c-0.612,0.89-1.24,1.766-1.887,2.63C501.892,116.367,505.526,90.225,556.576,70.674z"/>
<radialGradient id="SVGID_27_" cx="171.7863" cy="493.093" r="0.75" gradientTransform="matrix(54.299 0 0 -101.6416 -8796.332 50243.2773)" gradientUnits="userSpaceOnUse">
	<stop  offset="0" style="stop-color:#008A00"/>
	<stop  offset="1" style="stop-color:#FFFFFF;stop-opacity:0.2"/>
</radialGradient>
<path fill="url(#SVGID_27_)" stroke="#000000" stroke-width="0.25" d="M557.674,73.718c0.346,1.022,0.672,2.05,0.977,3.085
	c-52.434,15.464-66.893,47.872-43.378,97.222c-0.974,0.465-1.956,0.909-2.948,1.334C490.775,125.12,505.892,91.239,557.674,73.718z"
	/>
<radialGradient id="SVGID_28_" cx="172.8786" cy="493.593" r="0.75" gradientTransform="matrix(82.2626 0 0 -122.7447 -13710.0234 60706.2578)" gradientUnits="userSpaceOnUse">
	<stop  offset="0" style="stop-color:#008A00"/>
	<stop  offset="1" style="stop-color:#FFFFFF;stop-opacity:0.2"/>
</radialGradient>
<path fill="url(#SVGID_28_)" stroke="#000000" stroke-width="0.25" d="M551.014,59c0.54,0.934,1.061,1.879,1.562,2.834
	c-48.384,25.444-74.731,65.414-79.042,119.91c-1.075-0.084-2.149-0.191-3.221-0.318C476.772,127.143,503.671,86.334,551.014,59z"/>
<radialGradient id="SVGID_29_" cx="173.651" cy="492.6291" r="0.7496" gradientTransform="matrix(129.3362 0 0 -87.6352 -21963.8105 43295.3398)" gradientUnits="userSpaceOnUse">
	<stop  offset="0" style="stop-color:#008A00"/>
	<stop  offset="1" style="stop-color:#FFFFFF;stop-opacity:0.2"/>
</radialGradient>
<path fill="url(#SVGID_29_)" stroke="#000000" stroke-width="0.25" d="M559.505,79.925c0.264,1.046,0.507,2.097,0.729,3.153
	c-53.489,11.282-95.725,39.442-126.706,84.483c-0.889-0.611-1.766-1.24-2.63-1.887C463.633,121.891,506.502,93.308,559.505,79.925z"
	/>
<radialGradient id="SVGID_30_" cx="173.883" cy="490.3391" r="0.75" gradientTransform="matrix(156.2 0 0 -52.1953 -26677.8008 25702.5625)" gradientUnits="userSpaceOnUse">
	<stop  offset="0" style="stop-color:#008A00"/>
	<stop  offset="1" style="stop-color:#FFFFFF;stop-opacity:0.2"/>
</radialGradient>
<path fill="url(#SVGID_30_)" stroke="#000000" stroke-width="0.25" d="M560.234,83.078c0.223,1.055,0.425,2.115,0.605,3.179
	c-53.894,9.163-105.516,25.501-154.865,49.017c-0.465-0.975-0.909-1.957-1.335-2.949C454.88,110.776,506.745,94.36,560.234,83.078z"
	/>
<radialGradient id="SVGID_31_" cx="173.9298" cy="465.6476" r="0.7507" gradientTransform="matrix(163.0641 0 0 -9.7357 -27881.9531 4624.5366)" gradientUnits="userSpaceOnUse">
	<stop  offset="0" style="stop-color:#008A00"/>
	<stop  offset="1" style="stop-color:#FFFFFF;stop-opacity:0.2"/>
</radialGradient>
<path fill="url(#SVGID_31_)" stroke="#000000" stroke-width="0.25" d="M560.84,86.257c0.181,1.063,0.341,2.13,0.479,3.2
	c-54.213,7.029-108.567,8.388-163.064,4.078c0.086-1.075,0.191-2.149,0.319-3.22C452.859,96.772,506.946,95.419,560.84,86.257z"/>
<radialGradient id="SVGID_32_" cx="173.8307" cy="489.092" r="0.7504" gradientTransform="matrix(149.2321 0 0 -42.7726 -25454.0273 20992.0312)" gradientUnits="userSpaceOnUse">
	<stop  offset="0" style="stop-color:#008A00"/>
	<stop  offset="1" style="stop-color:#FFFFFF;stop-opacity:0.2"/>
</radialGradient>
<path fill="url(#SVGID_32_)" stroke="#000000" stroke-width="0.25" d="M561.319,89.457c0.139,1.07,0.257,2.143,0.353,3.217
	c-54.448,4.884-104.191-8.164-149.232-39.145c0.612-0.889,1.24-1.766,1.887-2.63C458.109,83.633,507.107,96.486,561.319,89.457z"/>
<radialGradient id="SVGID_33_" cx="173.5099" cy="491.8654" r="0.7507" gradientTransform="matrix(117.1703 0 0 -71.4767 -19826.9883 35217.3008)" gradientUnits="userSpaceOnUse">
	<stop  offset="0" style="stop-color:#008A00"/>
	<stop  offset="1" style="stop-color:#FFFFFF;stop-opacity:0.2"/>
</radialGradient>
<path fill="url(#SVGID_33_)" stroke="#000000" stroke-width="0.25" d="M561.672,92.674c0.097,1.075,0.172,2.151,0.226,3.229
	c-54.599,2.732-93.655-20.577-117.17-69.928c0.974-0.464,1.956-0.909,2.948-1.334C469.226,74.88,507.224,97.558,561.672,92.674z"/>
<radialGradient id="SVGID_34_" cx="170.7262" cy="455.8547" r="0.7496" gradientTransform="matrix(40.8243 0 0 -7.3607 -6428.7612 3464.6313)" gradientUnits="userSpaceOnUse">
	<stop  offset="0" style="stop-color:#008A00"/>
	<stop  offset="1" style="stop-color:#FFFFFF;stop-opacity:0.2"/>
</radialGradient>
<path fill="url(#SVGID_34_)" stroke="#000000" stroke-width="0.25" d="M561.426,109.686c-0.127,1.072-0.275,2.141-0.445,3.206
	C506.993,104.297,507.142,103.229,561.426,109.686z"/>
<radialGradient id="SVGID_35_" cx="171.1501" cy="488.8517" r="0.7511" gradientTransform="matrix(45.3308 0 0 -41.3378 -7220.0786 20339.0195)" gradientUnits="userSpaceOnUse">
	<stop  offset="0" style="stop-color:#008A00"/>
	<stop  offset="1" style="stop-color:#FFFFFF;stop-opacity:0.2"/>
</radialGradient>
<path fill="url(#SVGID_35_)" stroke="#000000" stroke-width="0.25" d="M560.981,112.892c-0.17,1.065-0.36,2.127-0.572,3.185
	c-53.605-10.717-58.517,0.291-14.734,33.025c-0.646,0.863-1.309,1.715-1.988,2.553C501.229,117.219,506.993,104.297,560.981,112.892
	z"/>
<radialGradient id="SVGID_36_" cx="172.0387" cy="491.3312" r="0.75" gradientTransform="matrix(58.9199 0 0 -63.2897 -9605.5264 31241.1504)" gradientUnits="userSpaceOnUse">
	<stop  offset="0" style="stop-color:#008A00"/>
	<stop  offset="1" style="stop-color:#FFFFFF;stop-opacity:0.2"/>
</radialGradient>
<path fill="url(#SVGID_36_)" stroke="#000000" stroke-width="0.25" d="M560.408,116.076c-0.211,1.059-0.443,2.111-0.696,3.16
	c-53.142-12.824-68.937,5.884-47.388,56.123c-0.991,0.426-1.991,0.832-2.998,1.217C489.776,125.526,506.803,105.36,560.408,116.076z
	"/>
<radialGradient id="SVGID_37_" cx="173.1613" cy="492.3713" r="0.75" gradientTransform="matrix(94.8913 0 0 -81.4259 -15916.9277 40232.4805)" gradientUnits="userSpaceOnUse">
	<stop  offset="0" style="stop-color:#008A00"/>
	<stop  offset="1" style="stop-color:#FFFFFF;stop-opacity:0.2"/>
</radialGradient>
<path fill="url(#SVGID_37_)" stroke="#000000" stroke-width="0.25" d="M562,100c0,1.078-0.021,2.157-0.063,3.235
	c-54.624-2.157-85.165,23.907-91.623,78.19c-1.071-0.127-2.14-0.275-3.205-0.445C475.703,126.994,507.333,100,562,100z"/>
<radialGradient id="SVGID_38_" cx="173.6637" cy="489.9846" r="0.75" gradientTransform="matrix(130.545 0 0 -49.1207 -22177.248 24209.5)" gradientUnits="userSpaceOnUse">
	<stop  offset="0" style="stop-color:#008A00"/>
	<stop  offset="1" style="stop-color:#FFFFFF;stop-opacity:0.2"/>
</radialGradient>
<path fill="url(#SVGID_38_)" stroke="#000000" stroke-width="0.25" d="M558.891,122.367c-0.294,1.037-0.609,2.069-0.944,3.095
	c-51.964-16.975-94.313-3.571-127.048,40.212c-0.864-0.646-1.715-1.309-2.553-1.988
	C462.782,121.229,506.297,107.455,558.891,122.367z"/>
<radialGradient id="SVGID_39_" cx="173.8717" cy="480.1945" r="0.7493" gradientTransform="matrix(154.5234 0 0 -18.6957 -26386.4746 9100.5273)" gradientUnits="userSpaceOnUse">
	<stop  offset="0" style="stop-color:#008A00"/>
	<stop  offset="1" style="stop-color:#FFFFFF;stop-opacity:0.2"/>
</radialGradient>
<path fill="url(#SVGID_39_)" stroke="#000000" stroke-width="0.25" d="M557.946,125.462c-0.335,1.025-0.689,2.044-1.065,3.056
	c-51.254-19.012-102.001-17.742-152.241,3.807c-0.425-0.991-0.83-1.99-1.217-2.998C454.475,109.776,505.983,108.487,557.946,125.462
	z"/>
<radialGradient id="SVGID_40_" cx="173.8981" cy="489.3478" r="0.75" gradientTransform="matrix(158.3073 0 0 -44.4203 -27051.5137 21846.2793)" gradientUnits="userSpaceOnUse">
	<stop  offset="0" style="stop-color:#008A00"/>
	<stop  offset="1" style="stop-color:#FFFFFF;stop-opacity:0.2"/>
</radialGradient>
<path fill="url(#SVGID_40_)" stroke="#000000" stroke-width="0.25" d="M556.881,128.518c-0.375,1.012-0.77,2.016-1.185,3.012
	c-50.464-21.02-102.838-34.758-157.122-41.215c0.127-1.071,0.275-2.14,0.445-3.206C453.007,95.703,505.627,109.506,556.881,128.518z
	"/>
<radialGradient id="SVGID_41_" cx="173.7653" cy="492.5705" r="0.7504" gradientTransform="matrix(141.3701 0 0 -86.1455 -24080.2324 42524.1289)" gradientUnits="userSpaceOnUse">
	<stop  offset="0" style="stop-color:#008A00"/>
	<stop  offset="1" style="stop-color:#FFFFFF;stop-opacity:0.2"/>
</radialGradient>
<path fill="url(#SVGID_41_)" stroke="#000000" stroke-width="0.25" d="M555.696,131.529c-0.415,0.996-0.85,1.982-1.303,2.962
	c-49.596-22.994-96.285-50.858-140.067-83.593c0.646-0.864,1.309-1.715,1.988-2.553C458.772,82.782,505.233,110.51,555.696,131.529z
	"/>
<radialGradient id="SVGID_42_" cx="173.3649" cy="493.4074" r="0.75" gradientTransform="matrix(106.7178 0 0 -113.9762 -18000.0938 56317.1562)" gradientUnits="userSpaceOnUse">
	<stop  offset="0" style="stop-color:#008A00"/>
	<stop  offset="1" style="stop-color:#FFFFFF;stop-opacity:0.2"/>
</radialGradient>
<path fill="url(#SVGID_42_)" stroke="#000000" stroke-width="0.25" d="M554.394,134.491c-0.454,0.979-0.927,1.948-1.419,2.908
	c-48.649-24.933-83.749-62.52-105.299-112.759c0.991-0.425,1.991-0.831,2.998-1.217C470.225,74.475,504.798,111.497,554.394,134.491
	z"/>
<radialGradient id="SVGID_43_" cx="169.6095" cy="485.3303" r="0.7504" gradientTransform="matrix(32.3733 0 0 -27.6961 -4963.333 13582.0381)" gradientUnits="userSpaceOnUse">
	<stop  offset="0" style="stop-color:#008A00"/>
	<stop  offset="1" style="stop-color:#FFFFFF;stop-opacity:0.2"/>
</radialGradient>
<path fill="url(#SVGID_43_)" stroke="#000000" stroke-width="0.25" d="M543.686,151.654c-0.68,0.838-1.376,1.662-2.088,2.473
	C500.532,118.043,501.229,117.219,543.686,151.654z"/>
<radialGradient id="SVGID_44_" cx="170.9386" cy="489.5451" r="0.75" gradientTransform="matrix(42.9644 0 0 -45.7756 -6824.165 22563.9961)" gradientUnits="userSpaceOnUse">
	<stop  offset="0" style="stop-color:#008A00"/>
	<stop  offset="1" style="stop-color:#FFFFFF;stop-opacity:0.2"/>
</radialGradient>
<path fill="url(#SVGID_44_)" stroke="#000000" stroke-width="0.25" d="M541.598,154.127c-0.712,0.811-1.44,1.606-2.184,2.389
	c-39.609-37.678-49.639-30.99-30.088,20.061c-1.008,0.387-2.022,0.752-3.045,1.098C488.761,125.892,500.532,118.043,541.598,154.127
	z"/>
<radialGradient id="SVGID_45_" cx="172.9967" cy="490.0656" r="0.7497" gradientTransform="matrix(87.0906 0 0 -49.7927 -14558.8789 24557.791)" gradientUnits="userSpaceOnUse">
	<stop  offset="0" style="stop-color:#008A00"/>
	<stop  offset="1" style="stop-color:#FFFFFF;stop-opacity:0.2"/>
</radialGradient>
<path fill="url(#SVGID_45_)" stroke="#000000" stroke-width="0.25" d="M551.014,141c-0.539,0.934-1.097,1.857-1.673,2.77
	c-46.228-29.18-73.638-16.775-82.232,37.211c-1.065-0.17-2.127-0.36-3.185-0.572C474.642,126.803,503.671,113.666,551.014,141z"/>
<radialGradient id="SVGID_46_" cx="173.4313" cy="486.9133" r="0.7503" gradientTransform="matrix(111.2649 0 0 -32.5222 -18815.3594 15982.9238)" gradientUnits="userSpaceOnUse">
	<stop  offset="0" style="stop-color:#008A00"/>
	<stop  offset="1" style="stop-color:#FFFFFF;stop-opacity:0.2"/>
</radialGradient>
<path fill="url(#SVGID_46_)" stroke="#000000" stroke-width="0.25" d="M537.138,158.816c-0.773,0.752-1.562,1.488-2.365,2.208
	c-36.515-40.682-71.99-39.795-106.427,2.662c-0.838-0.68-1.662-1.376-2.473-2.088C461.958,120.533,499.046,119.606,537.138,158.816z
	"/>
<radialGradient id="SVGID_47_" cx="173.6828" cy="489.3996" r="0.7496" gradientTransform="matrix(132.4469 0 0 -44.7676 -22535.1934 22050.0137)" gradientUnits="userSpaceOnUse">
	<stop  offset="0" style="stop-color:#008A00"/>
	<stop  offset="1" style="stop-color:#FFFFFF;stop-opacity:0.2"/>
</radialGradient>
<path fill="url(#SVGID_47_)" stroke="#000000" stroke-width="0.25" d="M534.773,161.024c-0.803,0.721-1.619,1.426-2.45,2.114
	c-34.882-42.092-77.848-53.362-128.899-33.812c-0.386-1.008-0.751-2.022-1.097-3.045
	C454.109,108.761,498.258,120.342,534.773,161.024z"/>
<radialGradient id="SVGID_48_" cx="173.6906" cy="492.3615" r="0.7504" gradientTransform="matrix(133.3027 0 0 -81.2295 -22687.834 40118.8945)" gradientUnits="userSpaceOnUse">
	<stop  offset="0" style="stop-color:#008A00"/>
	<stop  offset="1" style="stop-color:#FFFFFF;stop-opacity:0.2"/>
</radialGradient>
<path fill="url(#SVGID_48_)" stroke="#000000" stroke-width="0.25" d="M532.322,163.138c-0.83,0.688-1.675,1.36-2.532,2.015
	c-33.193-43.435-76.783-69.449-130.77-78.044c0.17-1.065,0.36-2.127,0.572-3.185C453.197,94.641,497.441,121.046,532.322,163.138z"
	/>
<radialGradient id="SVGID_49_" cx="173.4626" cy="493.5617" r="0.75" gradientTransform="matrix(113.4758 0 0 -121.1938 -19210.7246 59923.1055)" gradientUnits="userSpaceOnUse">
	<stop  offset="0" style="stop-color:#008A00"/>
	<stop  offset="1" style="stop-color:#FFFFFF;stop-opacity:0.2"/>
</radialGradient>
<path fill="url(#SVGID_49_)" stroke="#000000" stroke-width="0.25" d="M529.79,165.153c-0.856,0.656-1.727,1.294-2.609,1.914
	c-31.454-44.711-68.409-84.285-110.866-118.721c0.68-0.838,1.376-1.662,2.088-2.473C459.468,81.958,496.597,121.718,529.79,165.153z
	"/>
<radialGradient id="SVGID_50_" cx="172.7189" cy="493.9836" r="0.7504" gradientTransform="matrix(76.5069 0 0 -146.5503 -12725.2754 72489.1484)" gradientUnits="userSpaceOnUse">
	<stop  offset="0" style="stop-color:#008A00"/>
	<stop  offset="1" style="stop-color:#FFFFFF;stop-opacity:0.2"/>
</radialGradient>
<path fill="url(#SVGID_50_)" stroke="#000000" stroke-width="0.25" d="M527.181,167.067c-0.882,0.621-1.776,1.225-2.683,1.81
	c-29.665-45.917-54.273-94.401-73.824-145.453c1.008-0.386,2.022-0.751,3.045-1.098C471.239,74.109,495.727,122.356,527.181,167.067
	z"/>
<radialGradient id="SVGID_51_" cx="162.5011" cy="486.1642" r="0.7498" gradientTransform="matrix(13.9602 0 0 -30.0433 -1769.2421 14769.5967)" gradientUnits="userSpaceOnUse">
	<stop  offset="0" style="stop-color:#008A00"/>
	<stop  offset="1" style="stop-color:#FFFFFF;stop-opacity:0.2"/>
</radialGradient>
<path fill="url(#SVGID_51_)" stroke="#000000" stroke-width="0.25" d="M506.281,177.674c-1.021,0.346-2.05,0.672-3.085,0.977
	C487.733,126.217,488.761,125.892,506.281,177.674z"/>
<radialGradient id="SVGID_52_" cx="172.1037" cy="489.0842" r="0.7504" gradientTransform="matrix(60.2366 0 0 -42.7272 -9876.0439 21056.2402)" gradientUnits="userSpaceOnUse">
	<stop  offset="0" style="stop-color:#008A00"/>
	<stop  offset="1" style="stop-color:#FFFFFF;stop-opacity:0.2"/>
</radialGradient>
<path fill="url(#SVGID_52_)" stroke="#000000" stroke-width="0.25" d="M521,171.014c-0.935,0.54-1.879,1.061-2.834,1.562
	c-25.444-48.384-43.524-45.773-54.242,7.832c-1.059-0.211-2.111-0.443-3.16-0.696C473.588,126.57,493.667,123.672,521,171.014z"/>
<radialGradient id="SVGID_53_" cx="172.7218" cy="489.507" r="0.75" gradientTransform="matrix(76.5904 0 0 -45.5051 -12767.0303 22432.5312)" gradientUnits="userSpaceOnUse">
	<stop  offset="0" style="stop-color:#008A00"/>
	<stop  offset="1" style="stop-color:#FFFFFF;stop-opacity:0.2"/>
</radialGradient>
<path fill="url(#SVGID_53_)" stroke="#000000" stroke-width="0.25" d="M500.075,179.505c-1.046,0.264-2.097,0.507-3.152,0.729
	c-11.282-53.489-34.965-59.701-71.05-18.637c-0.811-0.712-1.606-1.439-2.389-2.184C461.161,119.805,486.692,126.502,500.075,179.505
	z"/>
<radialGradient id="SVGID_54_" cx="173.1745" cy="491.299" r="0.7493" gradientTransform="matrix(95.5732 0 0 -62.8458 -16101.6621 31025.4688)" gradientUnits="userSpaceOnUse">
	<stop  offset="0" style="stop-color:#008A00"/>
	<stop  offset="1" style="stop-color:#FFFFFF;stop-opacity:0.2"/>
</radialGradient>
<path fill="url(#SVGID_54_)" stroke="#000000" stroke-width="0.25" d="M496.923,180.235c-1.056,0.223-2.116,0.425-3.18,0.605
	c-9.162-53.893-39.635-72.079-91.417-54.559c-0.346-1.021-0.672-2.05-0.977-3.085C453.783,107.733,485.641,126.745,496.923,180.235z
	"/>
<radialGradient id="SVGID_55_" cx="173.1481" cy="493.0617" r="0.7493" gradientTransform="matrix(94.1522 0 0 -100.556 -15855.5137 49711.3008)" gradientUnits="userSpaceOnUse">
	<stop  offset="0" style="stop-color:#008A00"/>
	<stop  offset="1" style="stop-color:#FFFFFF;stop-opacity:0.2"/>
</radialGradient>
<path fill="url(#SVGID_55_)" stroke="#000000" stroke-width="0.25" d="M493.743,180.84c-1.063,0.182-2.13,0.341-3.2,0.479
	c-7.028-54.213-37.346-86.678-90.951-97.396c0.211-1.058,0.443-2.111,0.696-3.16C453.43,93.588,484.581,126.947,493.743,180.84z"/>
<radialGradient id="SVGID_56_" cx="172.5817" cy="493.8625" r="0.7489" gradientTransform="matrix(72.1409 0 0 -138.1873 -11995.7266 68358)" gradientUnits="userSpaceOnUse">
	<stop  offset="0" style="stop-color:#008A00"/>
	<stop  offset="1" style="stop-color:#FFFFFF;stop-opacity:0.2"/>
</radialGradient>
<path fill="url(#SVGID_56_)" stroke="#000000" stroke-width="0.25" d="M490.543,181.32c-1.069,0.139-2.142,0.257-3.217,0.353
	c-4.884-54.447-27.858-99.714-68.924-135.799c0.712-0.811,1.44-1.606,2.184-2.388C460.195,81.162,483.515,127.107,490.543,181.32z"
	/>
<radialGradient id="SVGID_57_" cx="169.8083" cy="494.1603" r="0.7493" gradientTransform="matrix(33.6081 0 0 -160.5482 -5236.4082 79438.0625)" gradientUnits="userSpaceOnUse">
	<stop  offset="0" style="stop-color:#008A00"/>
	<stop  offset="1" style="stop-color:#FFFFFF;stop-opacity:0.2"/>
</radialGradient>
<path fill="url(#SVGID_57_)" stroke="#000000" stroke-width="0.25" d="M487.326,181.672c-1.074,0.097-2.15,0.172-3.228,0.226
	c-2.732-54.599-12.859-107.789-30.38-159.572c1.021-0.346,2.05-0.671,3.085-0.976C472.268,73.783,482.443,127.225,487.326,181.672z"
	/>
<radialGradient id="SVGID_58_" cx="121.0666" cy="488.7951" r="0.75" gradientTransform="matrix(3.2354 0 0 -41.016 86.6828 20209.9043)" gradientUnits="userSpaceOnUse">
	<stop  offset="0" style="stop-color:#008A00"/>
	<stop  offset="1" style="stop-color:#FFFFFF;stop-opacity:0.2"/>
</radialGradient>
<path fill="url(#SVGID_58_)" stroke="#000000" stroke-width="0.25" d="M480,182c-1.079,0-2.157-0.021-3.235-0.064
	C478.922,127.313,480,127.334,480,182z"/>
<radialGradient id="SVGID_59_" cx="168.9757" cy="488.9621" r="0.7504" gradientTransform="matrix(28.9675 0 0 -41.9865 -4444.0947 20687.709)" gradientUnits="userSpaceOnUse">
	<stop  offset="0" style="stop-color:#008A00"/>
	<stop  offset="1" style="stop-color:#FFFFFF;stop-opacity:0.2"/>
</radialGradient>
<path fill="url(#SVGID_59_)" stroke="#000000" stroke-width="0.25" d="M457.633,178.891c-1.037-0.295-2.069-0.609-3.095-0.943
	c16.975-51.965,11.795-54.275-15.538-6.934c-0.935-0.539-1.857-1.097-2.77-1.673C465.41,123.113,472.545,126.297,457.633,178.891z"
	/>
<radialGradient id="SVGID_60_" cx="171.7521" cy="490.3527" r="0.75" gradientTransform="matrix(53.7273 0 0 -52.3257 -8793.4863 25809.8477)" gradientUnits="userSpaceOnUse">
	<stop  offset="0" style="stop-color:#008A00"/>
	<stop  offset="1" style="stop-color:#FFFFFF;stop-opacity:0.2"/>
</radialGradient>
<path fill="url(#SVGID_60_)" stroke="#000000" stroke-width="0.25" d="M454.538,177.947c-1.025-0.336-2.044-0.691-3.056-1.066
	c19.012-51.254,4.847-63.215-42.496-35.881c-0.54-0.934-1.061-1.879-1.562-2.834C455.808,112.723,471.513,125.983,454.538,177.947z"
	/>
<radialGradient id="SVGID_61_" cx="172.1325" cy="492.3127" r="0.7489" gradientTransform="matrix(60.8452 0 0 -80.1168 -10044.9922 39579.2344)" gradientUnits="userSpaceOnUse">
	<stop  offset="0" style="stop-color:#008A00"/>
	<stop  offset="1" style="stop-color:#FFFFFF;stop-opacity:0.2"/>
</radialGradient>
<path fill="url(#SVGID_61_)" stroke="#000000" stroke-width="0.25" d="M451.483,176.881c-1.012-0.375-2.016-0.77-3.012-1.185
	C469.49,125.233,452.667,100,398,100c0-1.079,0.021-2.157,0.063-3.235C452.688,98.922,470.494,125.627,451.483,176.881z"/>
<radialGradient id="SVGID_62_" cx="171.463" cy="493.5266" r="0.7507" gradientTransform="matrix(49.3401 0 0 -119.4663 -8026.3613 59075.7852)" gradientUnits="userSpaceOnUse">
	<stop  offset="0" style="stop-color:#008A00"/>
	<stop  offset="1" style="stop-color:#FFFFFF;stop-opacity:0.2"/>
</radialGradient>
<path fill="url(#SVGID_62_)" stroke="#000000" stroke-width="0.25" d="M448.471,175.696c-0.995-0.415-1.983-0.849-2.962-1.303
	c22.994-49.596,10.82-88.06-36.522-115.394c0.539-0.934,1.097-1.858,1.673-2.77C456.887,85.41,469.49,125.233,448.471,175.696z"/>
<radialGradient id="SVGID_63_" cx="167.3742" cy="493.9885" r="0.7507" gradientTransform="matrix(22.8822 0 0 -146.9698 -3379.4412 72702.3984)" gradientUnits="userSpaceOnUse">
	<stop  offset="0" style="stop-color:#008A00"/>
	<stop  offset="1" style="stop-color:#FFFFFF;stop-opacity:0.2"/>
</radialGradient>
<path fill="url(#SVGID_63_)" stroke="#000000" stroke-width="0.25" d="M445.509,174.394c-0.979-0.454-1.948-0.927-2.908-1.419
	c24.933-48.65,23.732-96.646-3.601-143.989c0.935-0.54,1.879-1.06,2.834-1.562C467.278,75.808,468.503,124.798,445.509,174.394z"/>
<radialGradient id="SVGID_64_" cx="169.3844" cy="371.0598" r="0.75" gradientTransform="matrix(31.0744 0 0 -2.3651 -4829.019 1033.5637)" gradientUnits="userSpaceOnUse">
	<stop  offset="0" style="stop-color:#008A00"/>
	<stop  offset="1" style="stop-color:#FFFFFF;stop-opacity:0.2"/>
</radialGradient>
<path fill="url(#SVGID_64_)" stroke="#000000" stroke-width="0.25" d="M421.185,157.138c-0.752-0.773-1.488-1.562-2.209-2.364
	C459.658,118.258,460.395,119.046,421.185,157.138z"/>
<radialGradient id="SVGID_65_" cx="171.1256" cy="488.9387" r="0.7493" gradientTransform="matrix(45.0437 0 0 -41.8445 -7285.8853 20593.25)" gradientUnits="userSpaceOnUse">
	<stop  offset="0" style="stop-color:#008A00"/>
	<stop  offset="1" style="stop-color:#FFFFFF;stop-opacity:0.2"/>
</radialGradient>
<path fill="url(#SVGID_65_)" stroke="#000000" stroke-width="0.25" d="M418.976,154.774c-0.721-0.804-1.425-1.621-2.113-2.451
	c42.092-34.881,36.636-45.631-16.367-32.247c-0.264-1.046-0.507-2.097-0.729-3.153C453.255,105.641,459.658,118.258,418.976,154.774
	z"/>
<radialGradient id="SVGID_66_" cx="171.0348" cy="492.2014" r="0.7493" gradientTransform="matrix(44.0081 0 0 -77.7844 -7103.8301 38399.0234)" gradientUnits="userSpaceOnUse">
	<stop  offset="0" style="stop-color:#008A00"/>
	<stop  offset="1" style="stop-color:#FFFFFF;stop-opacity:0.2"/>
</radialGradient>
<path fill="url(#SVGID_66_)" stroke="#000000" stroke-width="0.25" d="M416.862,152.322c-0.688-0.83-1.36-1.675-2.016-2.531
	c43.436-33.194,38.856-57.247-13.737-72.158c0.294-1.038,0.609-2.07,0.944-3.095C454.018,91.513,458.954,117.442,416.862,152.322z"
	/>
<radialGradient id="SVGID_67_" cx="170.3234" cy="493.3342" r="0.7489" gradientTransform="matrix(37.31 0 0 -110.8145 -5923.1626 54762.9336)" gradientUnits="userSpaceOnUse">
	<stop  offset="0" style="stop-color:#008A00"/>
	<stop  offset="1" style="stop-color:#FFFFFF;stop-opacity:0.2"/>
</radialGradient>
<path fill="url(#SVGID_67_)" stroke="#000000" stroke-width="0.25" d="M414.847,149.791c-0.654-0.857-1.293-1.728-1.913-2.61
	c44.711-31.454,48.021-66.786,9.929-105.996c0.773-0.752,1.562-1.488,2.365-2.208C461.742,79.659,458.282,116.597,414.847,149.791z"
	/>
<radialGradient id="SVGID_68_" cx="171.8385" cy="493.6799" r="0.75" gradientTransform="matrix(55.1656 0 0 -127.4158 -9040.7773 62986.1953)" gradientUnits="userSpaceOnUse">
	<stop  offset="0" style="stop-color:#008A00"/>
	<stop  offset="1" style="stop-color:#FFFFFF;stop-opacity:0.2"/>
</radialGradient>
<path fill="url(#SVGID_68_)" stroke="#000000" stroke-width="0.25" d="M412.934,147.181c-0.621-0.882-1.225-1.776-1.81-2.683
	c45.917-29.666,62.185-71,48.801-124.003c1.046-0.264,2.097-0.507,3.152-0.73C474.36,73.255,457.645,115.727,412.934,147.181z"/>
<radialGradient id="SVGID_69_" cx="170.6994" cy="464.3566" r="0.7496" gradientTransform="matrix(40.5719 0 0 -9.3384 -6506.1455 4448.6016)" gradientUnits="userSpaceOnUse">
	<stop  offset="0" style="stop-color:#008A00"/>
	<stop  offset="1" style="stop-color:#FFFFFF;stop-opacity:0.2"/>
</radialGradient>
<path fill="url(#SVGID_69_)" stroke="#000000" stroke-width="0.25" d="M399.766,116.922c-0.223-1.055-0.425-2.115-0.605-3.178
	C453.054,104.581,453.255,105.641,399.766,116.922z"/>
<radialGradient id="SVGID_70_" cx="170.8366" cy="489.007" r="0.7511" gradientTransform="matrix(41.9139 0 0 -42.2613 -6740.7876 20758.7207)" gradientUnits="userSpaceOnUse">
	<stop  offset="0" style="stop-color:#008A00"/>
	<stop  offset="1" style="stop-color:#FFFFFF;stop-opacity:0.2"/>
</radialGradient>
<path fill="url(#SVGID_70_)" stroke="#000000" stroke-width="0.25" d="M399.16,113.744c-0.181-1.064-0.341-2.131-0.479-3.201
	c54.213-7.028,55.337-19.03,3.373-36.005c0.335-1.025,0.689-2.044,1.065-3.056C454.373,90.494,453.054,104.581,399.16,113.744z"/>
<radialGradient id="SVGID_71_" cx="171.4992" cy="491.9904" r="0.7493" gradientTransform="matrix(49.8345 0 0 -73.681 -8123.3213 36323.9961)" gradientUnits="userSpaceOnUse">
	<stop  offset="0" style="stop-color:#008A00"/>
	<stop  offset="1" style="stop-color:#FFFFFF;stop-opacity:0.2"/>
</radialGradient>
<path fill="url(#SVGID_71_)" stroke="#000000" stroke-width="0.25" d="M398.681,110.543c-0.139-1.069-0.256-2.143-0.353-3.217
	c54.448-4.884,63.414-27.667,26.899-68.35c0.803-0.721,1.619-1.425,2.45-2.114C462.56,78.954,452.894,103.515,398.681,110.543z"/>
<radialGradient id="SVGID_72_" cx="172.5119" cy="492.6496" r="0.7493" gradientTransform="matrix(70.1335 0 0 -88.1665 -11665.6875 43498.3828)" gradientUnits="userSpaceOnUse">
	<stop  offset="0" style="stop-color:#008A00"/>
	<stop  offset="1" style="stop-color:#FFFFFF;stop-opacity:0.2"/>
</radialGradient>
<path fill="url(#SVGID_72_)" stroke="#000000" stroke-width="0.25" d="M398.328,107.326c-0.097-1.074-0.172-2.15-0.226-3.229
	c54.599-2.731,76.257-30.843,64.975-84.333c1.056-0.223,2.116-0.424,3.18-0.605C475.419,73.053,452.777,102.443,398.328,107.326z"/>
<radialGradient id="SVGID_73_" cx="170.4953" cy="478.1506" r="0.75" gradientTransform="matrix(38.7392 0 0 -16.555 -6182.3789 7992.5518)" gradientUnits="userSpaceOnUse">
	<stop  offset="0" style="stop-color:#008A00"/>
	<stop  offset="1" style="stop-color:#FFFFFF;stop-opacity:0.2"/>
</radialGradient>
<path fill="url(#SVGID_73_)" stroke="#000000" stroke-width="0.25" d="M403.119,71.483c0.375-1.012,0.77-2.016,1.185-3.011
	C454.768,89.49,454.373,90.494,403.119,71.483z"/>
<radialGradient id="SVGID_74_" cx="171.1779" cy="489.2697" r="0.7504" gradientTransform="matrix(45.6616 0 0 -43.906 -7389.1475 21538.6621)" gradientUnits="userSpaceOnUse">
	<stop  offset="0" style="stop-color:#008A00"/>
	<stop  offset="1" style="stop-color:#FFFFFF;stop-opacity:0.2"/>
</radialGradient>
<path fill="url(#SVGID_74_)" stroke="#000000" stroke-width="0.25" d="M404.304,68.471c0.415-0.996,0.85-1.983,1.303-2.962
	c49.596,22.994,56.953,13.445,22.071-28.646c0.83-0.688,1.675-1.36,2.532-2.015C463.403,78.282,454.768,89.49,404.304,68.471z"/>
<radialGradient id="SVGID_75_" cx="172.3219" cy="490.3566" r="0.75" gradientTransform="matrix(65.1588 0 0 -52.3667 -10790.127 25723.2871)" gradientUnits="userSpaceOnUse">
	<stop  offset="0" style="stop-color:#008A00"/>
	<stop  offset="1" style="stop-color:#FFFFFF;stop-opacity:0.2"/>
</radialGradient>
<path fill="url(#SVGID_75_)" stroke="#000000" stroke-width="0.25" d="M405.607,65.509c0.454-0.979,0.927-1.948,1.419-2.908
	c48.649,24.933,68.394,10.453,59.231-43.44c1.063-0.181,2.13-0.341,3.2-0.479C476.486,72.894,455.202,88.503,405.607,65.509z"/>
<radialGradient id="SVGID_76_" cx="168.175" cy="487.3127" r="0.7496" gradientTransform="matrix(25.5651 0 0 -34.0119 -3856.4148 16624.3379)" gradientUnits="userSpaceOnUse">
	<stop  offset="0" style="stop-color:#008A00"/>
	<stop  offset="1" style="stop-color:#FFFFFF;stop-opacity:0.2"/>
</radialGradient>
<path fill="url(#SVGID_76_)" stroke="#000000" stroke-width="0.25" d="M430.21,34.847c0.856-0.655,1.727-1.293,2.609-1.914
	C464.274,77.645,463.403,78.282,430.21,34.847z"/>
<radialGradient id="SVGID_77_" cx="170.6222" cy="489.4113" r="0.7496" gradientTransform="matrix(39.8545 0 0 -44.8459 -6347.2974 21988.8223)" gradientUnits="userSpaceOnUse">
	<stop  offset="0" style="stop-color:#008A00"/>
	<stop  offset="1" style="stop-color:#FFFFFF;stop-opacity:0.2"/>
</radialGradient>
<path fill="url(#SVGID_77_)" stroke="#000000" stroke-width="0.25" d="M432.819,32.933c0.882-0.621,1.776-1.224,2.683-1.809
	c29.665,45.917,40.983,41.77,33.955-12.443c1.069-0.139,2.142-0.256,3.217-0.353C477.558,72.776,464.274,77.645,432.819,32.933z"/>
<radialGradient id="SVGID_78_" cx="137.8586" cy="488.7932" r="0.7504" gradientTransform="matrix(4.6983 0 0 -41.0052 -172.6859 20081.6875)" gradientUnits="userSpaceOnUse">
	<stop  offset="0" style="stop-color:#008A00"/>
	<stop  offset="1" style="stop-color:#FFFFFF;stop-opacity:0.2"/>
</radialGradient>
<path fill="url(#SVGID_78_)" stroke="#000000" stroke-width="0.25" d="M472.674,18.328c1.074-0.097,2.15-0.172,3.228-0.226
	C478.634,72.701,477.558,72.776,472.674,18.328z"/>
</svg>
