<?xml version="1.0" encoding="utf-8"?>
<!-- Generator: Adobe Illustrator 15.0.0, SVG Export Plug-In . SVG Version: 6.00 Build 0)  -->
<!DOCTYPE svg PUBLIC "-//W3C//DTD SVG 1.1//EN" "http://www.w3.org/Graphics/SVG/1.1/DTD/svg11.dtd">
<svg version="1.1" id="Layer_1" xmlns="http://www.w3.org/2000/svg" xmlns:xlink="http://www.w3.org/1999/xlink" x="0px" y="0px"
	 width="96.975px" height="96.973px" viewBox="260.308 41.657 96.975 96.973" enable-background="new 260.308 41.657 96.975 96.973"
	 xml:space="preserve">
<circle fill="#FFF8A3" cx="308.793" cy="90.142" r="48.363"/>
<g>
	<g>
		<g>
			<path fill="#008A00" d="M308.795,41.782c7.67,0,15.232,1.824,22.06,5.322l-0.539,1.05c-6.658-3.413-14.035-5.192-21.521-5.193
				V41.782z"/>
			<path fill="none" stroke="#008A00" stroke-width="0.25" d="M308.795,41.782c7.67,0,15.232,1.824,22.06,5.322l-0.539,1.05
				c-6.658-3.413-14.035-5.192-21.521-5.193V41.782z"/>
			<path fill="#008A00" d="M332.977,48.261c6.644,3.834,12.277,9.195,16.441,15.639l-0.99,0.64
				c-4.062-6.285-9.561-11.516-16.041-15.258L332.977,48.261z"/>
			<path fill="none" stroke="#008A00" stroke-width="0.25" d="M332.977,48.261c6.644,3.834,12.277,9.195,16.441,15.639l-0.99,0.64
				c-4.062-6.285-9.561-11.516-16.041-15.258L332.977,48.261z"/>
			<path fill="#008A00" d="M350.678,65.962c3.836,6.644,6.037,14.103,6.42,21.766l-1.18,0.058
				c-0.373-7.474-2.52-14.752-6.262-21.232L350.678,65.962z"/>
			<path fill="none" stroke="#008A00" stroke-width="0.25" d="M350.678,65.962c3.836,6.644,6.037,14.103,6.42,21.766l-1.18,0.058
				c-0.373-7.474-2.52-14.752-6.262-21.232L350.678,65.962z"/>
			<path fill="#008A00" d="M357.158,90.144c0,7.67-1.824,15.23-5.324,22.059l-1.049-0.539c3.414-6.66,5.192-14.035,5.192-21.52
				H357.158z"/>
			<path fill="none" stroke="#008A00" stroke-width="0.25" d="M357.158,90.144c0,7.67-1.824,15.23-5.324,22.059l-1.049-0.539
				c3.414-6.66,5.192-14.035,5.192-21.52H357.158z"/>
			<path fill="#008A00" d="M350.678,114.325c-3.834,6.644-9.194,12.278-15.639,16.44l-0.639-0.99
				c6.284-4.061,11.516-9.558,15.256-16.039L350.678,114.325z"/>
			<path fill="none" stroke="#008A00" stroke-width="0.25" d="M350.678,114.325c-3.834,6.644-9.194,12.278-15.639,16.44l-0.639-0.99
				c6.284-4.061,11.516-9.558,15.256-16.039L350.678,114.325z"/>
			<path fill="#008A00" d="M332.977,132.027c-6.643,3.835-14.104,6.035-21.764,6.42l-0.059-1.178
				c7.475-0.376,14.752-2.522,21.231-6.264L332.977,132.027z"/>
			<path fill="none" stroke="#008A00" stroke-width="0.25" d="M332.977,132.027c-6.643,3.835-14.104,6.035-21.764,6.42l-0.059-1.178
				c7.475-0.376,14.752-2.522,21.231-6.264L332.977,132.027z"/>
			<path fill="#008A00" d="M308.795,138.505c-7.67,0.001-15.23-1.823-22.057-5.322l0.537-1.051c6.66,3.414,14.037,5.193,21.52,5.194
				V138.505L308.795,138.505z"/>
			<path fill="none" stroke="#008A00" stroke-width="0.25" d="M308.795,138.505c-7.67,0.001-15.23-1.823-22.057-5.322l0.537-1.051
				c6.66,3.414,14.037,5.193,21.52,5.194V138.505L308.795,138.505z"/>
			<path fill="#008A00" d="M284.615,132.027c-6.643-3.835-12.278-9.195-16.441-15.639l0.99-0.641
				c4.062,6.286,9.56,11.517,16.041,15.258L284.615,132.027z"/>
			<path fill="none" stroke="#008A00" stroke-width="0.25" d="M284.615,132.027c-6.643-3.835-12.278-9.195-16.441-15.639l0.99-0.641
				c4.062,6.286,9.56,11.517,16.041,15.258L284.615,132.027z"/>
			<path fill="#008A00" d="M266.914,114.326c-3.836-6.645-6.037-14.104-6.42-21.765l1.178-0.06
				c0.374,7.476,2.52,14.754,6.263,21.233L266.914,114.326z"/>
			<path fill="none" stroke="#008A00" stroke-width="0.25" d="M266.914,114.326c-3.836-6.645-6.037-14.104-6.42-21.765l1.178-0.06
				c0.374,7.476,2.52,14.754,6.263,21.233L266.914,114.326z"/>
			<path fill="#008A00" d="M260.433,90.144c-0.001-7.671,1.824-15.231,5.323-22.058l1.05,0.538
				c-3.412,6.659-5.193,14.036-5.193,21.52H260.433z"/>
			<path fill="none" stroke="#008A00" stroke-width="0.25" d="M260.433,90.144c-0.001-7.671,1.824-15.231,5.323-22.058l1.05,0.538
				c-3.412,6.659-5.193,14.036-5.193,21.52H260.433z"/>
			<path fill="#008A00" d="M266.914,65.963c3.834-6.644,9.195-12.278,15.637-16.441l0.641,0.99
				c-6.285,4.061-11.516,9.559-15.257,16.041L266.914,65.963z"/>
			<path fill="none" stroke="#008A00" stroke-width="0.25" d="M266.914,65.963c3.834-6.644,9.195-12.278,15.637-16.441l0.641,0.99
				c-6.285,4.061-11.516,9.559-15.257,16.041L266.914,65.963z"/>
			<path fill="#008A00" d="M284.615,48.261c6.643-3.836,14.102-6.037,21.762-6.419l0.062,1.178
				c-7.475,0.374-14.752,2.521-21.233,6.261L284.615,48.261z"/>
			<path fill="none" stroke="#008A00" stroke-width="0.25" d="M284.615,48.261c6.643-3.836,14.102-6.037,21.762-6.419l0.062,1.178
				c-7.475,0.374-14.752,2.521-21.233,6.261L284.615,48.261z"/>
			<path opacity="0.6706" fill="#008A00" enable-background="new    " d="M310.658,42.998c0.619,0.023,1.237,0.061,1.858,0.11
				C310.035,74.465,309.418,74.428,310.658,42.998z"/>
			<path fill="none" stroke="#000000" stroke-width="0.25" d="M310.658,42.998c0.619,0.023,1.237,0.061,1.858,0.11
				C310.035,74.465,309.418,74.428,310.658,42.998z"/>
			<path opacity="0.6706" fill="#008A00" enable-background="new    " d="M319.865,44.278c0.604,0.145,1.203,0.302,1.801,0.472
				c-8.58,30.262-4.475,32.095,12.313,5.495c0.525,0.332,1.044,0.673,1.556,1.024C317.709,77.187,312.484,74.855,319.865,44.278z"/>
			<path fill="none" stroke="#000000" stroke-width="0.25" d="M319.865,44.278c0.604,0.145,1.203,0.302,1.801,0.472
				c-8.58,30.262-4.475,32.095,12.313,5.495c0.525,0.332,1.044,0.673,1.556,1.024C317.709,77.187,312.484,74.855,319.865,44.278z"/>
			<path opacity="0.6706" fill="#008A00" enable-background="new    " d="M312.518,43.108c0.617,0.049,1.234,0.109,1.851,0.183
				c-3.713,31.235,8.348,39.532,36.188,24.892c0.287,0.548,0.566,1.104,0.832,1.664C322.994,83.378,310.035,74.465,312.518,43.108z"
				/>
			<path fill="none" stroke="#000000" stroke-width="0.25" d="M312.518,43.108c0.617,0.049,1.234,0.109,1.851,0.183
				c-3.713,31.235,8.348,39.532,36.188,24.892c0.287,0.548,0.566,1.104,0.832,1.664C322.994,83.378,310.035,74.465,312.518,43.108z"
				/>
			<path opacity="0.6706" fill="#008A00" enable-background="new    " d="M314.367,43.292c0.619,0.074,1.231,0.158,1.846,0.255
				c-4.945,31.064,8.297,47.217,39.729,48.458c-0.023,0.619-0.062,1.24-0.109,1.859C324.475,91.384,310.654,74.526,314.367,43.292z"
				/>
			<path fill="none" stroke="#000000" stroke-width="0.25" d="M314.367,43.292c0.619,0.074,1.231,0.158,1.846,0.255
				c-4.945,31.064,8.297,47.217,39.729,48.458c-0.023,0.619-0.062,1.24-0.109,1.859C324.475,91.384,310.654,74.526,314.367,43.292z"
				/>
			<path opacity="0.6706" fill="#008A00" enable-background="new    " d="M316.213,43.547c0.613,0.099,1.226,0.209,1.834,0.33
				c-6.168,30.845,4.049,54.662,30.648,71.453c-0.332,0.523-0.672,1.043-1.025,1.555C321.754,99.058,311.268,74.611,316.213,43.547z
				"/>
			<path fill="none" stroke="#000000" stroke-width="0.25" d="M316.213,43.547c0.613,0.099,1.226,0.209,1.834,0.33
				c-6.168,30.845,4.049,54.662,30.648,71.453c-0.332,0.523-0.672,1.043-1.025,1.555C321.754,99.058,311.268,74.611,316.213,43.547z
				"/>
			<path opacity="0.6706" fill="#008A00" enable-background="new    " d="M318.047,43.876c0.607,0.122,1.215,0.256,1.818,0.402
				c-7.381,30.577-3.75,59.786,10.891,87.625c-0.549,0.289-1.104,0.567-1.664,0.834C315.561,104.342,311.879,74.722,318.047,43.876z
				"/>
			<path fill="none" stroke="#000000" stroke-width="0.25" d="M318.047,43.876c0.607,0.122,1.215,0.256,1.818,0.402
				c-7.381,30.577-3.75,59.786,10.891,87.625c-0.549,0.289-1.104,0.567-1.664,0.834C315.561,104.342,311.879,74.722,318.047,43.876z
				"/>
			<path opacity="0.6706" fill="#008A00" enable-background="new    " d="M308.795,42.96c0.621,0,1.242,0.014,1.863,0.038
				c-1.24,31.43-2.484,62.861-3.724,94.291c-0.62-0.023-1.242-0.061-1.86-0.109C307.555,105.822,308.795,74.416,308.795,42.96z"/>
			<path fill="none" stroke="#000000" stroke-width="0.25" d="M308.795,42.96c0.621,0,1.242,0.014,1.863,0.038
				c-1.24,31.43-2.484,62.861-3.724,94.291c-0.62-0.023-1.242-0.061-1.86-0.109C307.555,105.822,308.795,74.416,308.795,42.96z"/>
			<path opacity="0.6706" fill="#008A00" enable-background="new    " d="M321.666,44.75c0.596,0.17,1.191,0.352,1.779,0.543
				c-9.767,29.9-23.045,58.149-39.835,84.75c-0.525-0.332-1.044-0.673-1.555-1.026C299.882,103.102,313.086,75.012,321.666,44.75z"
				/>
			<path fill="none" stroke="#000000" stroke-width="0.25" d="M321.666,44.75c0.596,0.17,1.191,0.352,1.779,0.543
				c-9.767,29.9-23.045,58.149-39.835,84.75c-0.525-0.332-1.044-0.673-1.555-1.026C299.882,103.102,313.086,75.012,321.666,44.75z"
				/>
			<path opacity="0.6706" fill="#008A00" enable-background="new    " d="M323.445,45.293c0.592,0.192,1.178,0.397,1.76,0.612
				c-10.939,29.492-30.331,51.559-58.17,66.199c-0.289-0.549-0.567-1.104-0.834-1.666C294.598,96.909,313.68,75.194,323.445,45.293z
				"/>
			<path fill="none" stroke="#000000" stroke-width="0.25" d="M323.445,45.293c0.592,0.192,1.178,0.397,1.76,0.612
				c-10.939,29.492-30.331,51.559-58.17,66.199c-0.289-0.549-0.567-1.104-0.834-1.666C294.598,96.909,313.68,75.194,323.445,45.293z
				"/>
			<path opacity="0.6706" fill="#008A00" enable-background="new    " d="M325.205,45.906c0.58,0.216,1.16,0.444,1.729,0.682
				c-12.092,29.039-33.855,42.936-65.286,41.695c0.023-0.621,0.061-1.241,0.11-1.859C293.117,88.904,314.266,75.398,325.205,45.906z
				"/>
			<path fill="none" stroke="#000000" stroke-width="0.25" d="M325.205,45.906c0.58,0.216,1.16,0.444,1.729,0.682
				c-12.092,29.039-33.855,42.936-65.286,41.695c0.023-0.621,0.061-1.241,0.11-1.859C293.117,88.904,314.266,75.398,325.205,45.906z
				"/>
			<path opacity="0.6706" fill="#008A00" enable-background="new    " d="M326.936,46.587c0.574,0.239,1.146,0.49,1.707,0.75
				c-13.231,28.538-33.146,34.411-59.747,17.622c0.332-0.525,0.674-1.044,1.025-1.555C295.837,81.23,314.844,75.626,326.936,46.587z
				"/>
			<path fill="none" stroke="#000000" stroke-width="0.25" d="M326.936,46.587c0.574,0.239,1.146,0.49,1.707,0.75
				c-13.231,28.538-33.146,34.411-59.747,17.622c0.332-0.525,0.674-1.044,1.025-1.555C295.837,81.23,314.844,75.626,326.936,46.587z
				"/>
			<path opacity="0.6706" fill="#008A00" enable-background="new    " d="M328.643,47.337c0.562,0.262,1.121,0.534,1.673,0.816
				c-14.347,27.993-28.838,28.071-43.48,0.229c0.55-0.29,1.105-0.567,1.665-0.833C302.031,75.946,315.41,75.875,328.643,47.337z"/>
			<path fill="none" stroke="#000000" stroke-width="0.25" d="M328.643,47.337c0.562,0.262,1.121,0.534,1.673,0.816
				c-14.347,27.993-28.838,28.071-43.48,0.229c0.55-0.29,1.105-0.567,1.665-0.833C302.031,75.946,315.41,75.875,328.643,47.337z"/>
			<path opacity="0.6706" fill="#008A00" enable-background="new    " d="M341.314,55.958c0.448,0.427,0.891,0.864,1.321,1.31
				C320.076,79.185,319.635,78.749,341.314,55.958z"/>
			<path fill="none" stroke="#000000" stroke-width="0.25" d="M341.314,55.958c0.448,0.427,0.891,0.864,1.321,1.31
				C320.076,79.185,319.635,78.749,341.314,55.958z"/>
			<path opacity="0.6706" fill="#008A00" enable-background="new    " d="M335.535,51.269c0.512,0.352,1.016,0.715,1.514,1.086
				c-18.836,25.192-13.168,33.339,17.002,24.441c0.176,0.596,0.34,1.195,0.49,1.797C324.045,86.293,317.709,77.187,335.535,51.269z"
				/>
			<path fill="none" stroke="#000000" stroke-width="0.25" d="M335.535,51.269c0.512,0.352,1.016,0.715,1.514,1.086
				c-18.836,25.192-13.168,33.339,17.002,24.441c0.176,0.596,0.34,1.195,0.49,1.797C324.045,86.293,317.709,77.187,335.535,51.269z"
				/>
			<path opacity="0.6706" fill="#008A00" enable-background="new    " d="M337.049,52.355c0.496,0.372,0.988,0.752,1.469,1.144
				c-19.813,24.431-14.434,40.335,16.146,47.714c-0.146,0.604-0.305,1.204-0.473,1.801
				C323.928,94.433,318.213,77.547,337.049,52.355z"/>
			<path fill="none" stroke="#000000" stroke-width="0.25" d="M337.049,52.355c0.496,0.372,0.988,0.752,1.469,1.144
				c-19.813,24.431-14.434,40.335,16.146,47.714c-0.146,0.604-0.305,1.204-0.473,1.801
				C323.928,94.433,318.213,77.547,337.049,52.355z"/>
			<path opacity="0.6706" fill="#008A00" enable-background="new    " d="M338.518,53.499c0.482,0.391,0.957,0.792,1.423,1.201
				c-20.763,23.63-19.75,46.283,3.043,67.963c-0.429,0.45-0.865,0.892-1.312,1.323C319.754,101.424,318.703,77.93,338.518,53.499z"
				/>
			<path fill="none" stroke="#000000" stroke-width="0.25" d="M338.518,53.499c0.482,0.391,0.957,0.792,1.423,1.201
				c-20.763,23.63-19.75,46.283,3.043,67.963c-0.429,0.45-0.865,0.892-1.312,1.323C319.754,101.424,318.703,77.93,338.518,53.499z"
				/>
			<path opacity="0.6706" fill="#008A00" enable-background="new    " d="M339.939,54.7c0.467,0.41,0.926,0.829,1.375,1.258
				c-21.681,22.791-28.068,49.272-19.173,79.442c-0.596,0.176-1.192,0.339-1.795,0.491C312.646,105.392,319.178,78.33,339.939,54.7z
				"/>
			<path fill="none" stroke="#000000" stroke-width="0.25" d="M339.939,54.7c0.467,0.41,0.926,0.829,1.375,1.258
				c-21.681,22.791-28.068,49.272-19.173,79.442c-0.596,0.176-1.192,0.339-1.795,0.491C312.646,105.392,319.178,78.33,339.939,54.7z
				"/>
			<path opacity="0.6706" fill="#008A00" enable-background="new    " d="M332.387,49.282c0.537,0.311,1.068,0.631,1.595,0.963
				c-16.789,26.6-28.875,55.188-36.253,85.764c-0.604-0.146-1.204-0.303-1.802-0.473C304.505,105.275,316.658,76.523,332.387,49.282
				z"/>
			<path fill="none" stroke="#000000" stroke-width="0.25" d="M332.387,49.282c0.537,0.311,1.068,0.631,1.595,0.963
				c-16.789,26.6-28.875,55.188-36.253,85.764c-0.604-0.146-1.204-0.303-1.802-0.473C304.505,105.275,316.658,76.523,332.387,49.282
				z"/>
			<path opacity="0.6706" fill="#008A00" enable-background="new    " d="M342.637,57.267c0.437,0.445,0.857,0.898,1.271,1.359
				c-23.408,21.012-45.952,42.914-67.631,65.705c-0.451-0.428-0.891-0.865-1.324-1.311
				C297.514,101.103,320.076,79.185,342.637,57.267z"/>
			<path fill="none" stroke="#000000" stroke-width="0.25" d="M342.637,57.267c0.437,0.445,0.857,0.898,1.271,1.359
				c-23.408,21.012-45.952,42.914-67.631,65.705c-0.451-0.428-0.891-0.865-1.324-1.311
				C297.514,101.103,320.076,79.185,342.637,57.267z"/>
			<path opacity="0.6706" fill="#008A00" enable-background="new    " d="M343.908,58.626c0.416,0.462,0.819,0.933,1.217,1.412
				c-24.219,20.069-51.415,34.555-81.585,43.451c-0.175-0.594-0.339-1.193-0.491-1.795C293.546,93.995,320.5,79.638,343.908,58.626z
				"/>
			<path fill="none" stroke="#000000" stroke-width="0.25" d="M343.908,58.626c0.416,0.462,0.819,0.933,1.217,1.412
				c-24.219,20.069-51.415,34.555-81.585,43.451c-0.175-0.594-0.339-1.193-0.491-1.795C293.546,93.995,320.5,79.638,343.908,58.626z
				"/>
			<path opacity="0.6706" fill="#008A00" enable-background="new    " d="M345.125,60.039c0.396,0.477,0.783,0.963,1.16,1.456
				c-24.994,19.099-52.778,24.959-83.356,17.581c0.146-0.604,0.304-1.204,0.473-1.801C293.664,85.854,320.906,80.108,345.125,60.039
				z"/>
			<path fill="none" stroke="#000000" stroke-width="0.25" d="M345.125,60.039c0.396,0.477,0.783,0.963,1.16,1.456
				c-24.994,19.099-52.778,24.959-83.356,17.581c0.146-0.604,0.304-1.204,0.473-1.801C293.664,85.854,320.906,80.108,345.125,60.039
				z"/>
			<path opacity="0.6706" fill="#008A00" enable-background="new    " d="M346.285,61.495c0.377,0.493,0.742,0.994,1.102,1.501
				c-25.729,18.099-49.987,16.308-72.779-5.371c0.429-0.45,0.866-0.891,1.311-1.324C297.835,78.862,321.291,80.593,346.285,61.495z"
				/>
			<path fill="none" stroke="#000000" stroke-width="0.25" d="M346.285,61.495c0.377,0.493,0.742,0.994,1.102,1.501
				c-25.729,18.099-49.987,16.308-72.779-5.371c0.429-0.45,0.866-0.891,1.311-1.324C297.835,78.862,321.291,80.593,346.285,61.495z"
				/>
			<path opacity="0.6706" fill="#008A00" enable-background="new    " d="M347.387,62.996c0.355,0.508,0.703,1.021,1.041,1.544
				c-26.422,17.068-44.082,10.518-52.979-19.651c0.595-0.176,1.193-0.34,1.795-0.491C304.945,74.896,321.658,81.095,347.387,62.996z
				"/>
			<path fill="none" stroke="#000000" stroke-width="0.25" d="M347.387,62.996c0.355,0.508,0.703,1.021,1.041,1.544
				c-26.422,17.068-44.082,10.518-52.979-19.651c0.595-0.176,1.193-0.34,1.795-0.491C304.945,74.896,321.658,81.095,347.387,62.996z
				"/>
			<path opacity="0.6706" fill="#008A00" enable-background="new    " d="M351.389,69.847c0.269,0.562,0.525,1.126,0.771,1.697
				C323.25,83.945,322.994,83.378,351.389,69.847z"/>
			<path fill="none" stroke="#000000" stroke-width="0.25" d="M351.389,69.847c0.269,0.562,0.525,1.126,0.771,1.697
				C323.25,83.945,322.994,83.378,351.389,69.847z"/>
			<path opacity="0.6706" fill="#008A00" enable-background="new    " d="M352.158,71.544c0.246,0.571,0.479,1.146,0.701,1.727
				c-29.377,11.249-28.386,18.114,2.973,20.594c-0.051,0.619-0.111,1.236-0.184,1.852C324.414,92.001,323.25,83.945,352.158,71.544z
				"/>
			<path fill="none" stroke="#000000" stroke-width="0.25" d="M352.158,71.544c0.246,0.571,0.479,1.146,0.701,1.727
				c-29.377,11.249-28.386,18.114,2.973,20.594c-0.051,0.619-0.111,1.236-0.184,1.852C324.414,92.001,323.25,83.945,352.158,71.544z
				"/>
			<path opacity="0.6706" fill="#008A00" enable-background="new    " d="M352.859,73.271c0.221,0.579,0.432,1.163,0.631,1.751
				c-29.797,10.081-31.736,24.037-5.82,41.863c-0.352,0.511-0.713,1.016-1.086,1.512C321.391,99.561,323.482,84.519,352.859,73.271z
				"/>
			<path fill="none" stroke="#000000" stroke-width="0.25" d="M352.859,73.271c0.221,0.579,0.432,1.163,0.631,1.751
				c-29.797,10.081-31.736,24.037-5.82,41.863c-0.352,0.511-0.713,1.016-1.086,1.512C321.391,99.561,323.482,84.519,352.859,73.271z
				"/>
			<path opacity="0.6706" fill="#008A00" enable-background="new    " d="M353.49,75.021c0.196,0.588,0.385,1.179,0.561,1.775
				c-30.17,8.898-38.49,27.546-24.959,55.941c-0.561,0.268-1.127,0.523-1.697,0.769C314.996,104.597,323.693,85.103,353.49,75.021z"
				/>
			<path fill="none" stroke="#000000" stroke-width="0.25" d="M353.49,75.021c0.196,0.588,0.385,1.179,0.561,1.775
				c-30.17,8.898-38.49,27.546-24.959,55.941c-0.561,0.268-1.127,0.523-1.697,0.769C314.996,104.597,323.693,85.103,353.49,75.021z"
				/>
			<path opacity="0.6706" fill="#008A00" enable-background="new    " d="M349.656,66.553c0.312,0.537,0.61,1.081,0.899,1.63
				c-27.842,14.64-43.002,37.638-45.481,68.996c-0.618-0.049-1.235-0.109-1.853-0.184
				C306.938,105.761,322.416,82.281,349.656,66.553z"/>
			<path fill="none" stroke="#000000" stroke-width="0.25" d="M349.656,66.553c0.312,0.537,0.61,1.081,0.899,1.63
				c-27.842,14.64-43.002,37.638-45.481,68.996c-0.618-0.049-1.235-0.109-1.853-0.184
				C306.938,105.761,322.416,82.281,349.656,66.553z"/>
			<path opacity="0.6706" fill="#008A00" enable-background="new    " d="M354.541,78.593c0.154,0.602,0.293,1.206,0.42,1.813
				c-30.775,6.491-55.079,22.695-72.906,48.61c-0.511-0.352-1.017-0.713-1.513-1.086C299.377,102.74,324.045,86.293,354.541,78.593z
				"/>
			<path fill="none" stroke="#000000" stroke-width="0.25" d="M354.541,78.593c0.154,0.602,0.293,1.206,0.42,1.813
				c-30.775,6.491-55.079,22.695-72.906,48.61c-0.511-0.352-1.017-0.713-1.513-1.086C299.377,102.74,324.045,86.293,354.541,78.593z
				"/>
			<path opacity="0.6706" fill="#008A00" enable-background="new    " d="M354.961,80.407c0.131,0.607,0.246,1.216,0.35,1.83
				c-31.01,5.272-60.711,14.672-89.109,28.203c-0.266-0.561-0.523-1.125-0.768-1.695C294.341,96.343,324.186,86.898,354.961,80.407z
				"/>
			<path fill="none" stroke="#000000" stroke-width="0.25" d="M354.961,80.407c0.131,0.607,0.246,1.216,0.35,1.83
				c-31.01,5.272-60.711,14.672-89.109,28.203c-0.266-0.561-0.523-1.125-0.768-1.695C294.341,96.343,324.186,86.898,354.961,80.407z
				"/>
			<path opacity="0.6706" fill="#008A00" enable-background="new    " d="M355.311,82.236c0.105,0.611,0.197,1.226,0.275,1.841
				c-31.193,4.044-62.469,4.827-93.826,2.346c0.048-0.619,0.109-1.236,0.183-1.853C293.177,88.285,324.301,87.508,355.311,82.236z"
				/>
			<path fill="none" stroke="#000000" stroke-width="0.25" d="M355.311,82.236c0.105,0.611,0.197,1.226,0.275,1.841
				c-31.193,4.044-62.469,4.827-93.826,2.346c0.048-0.619,0.109-1.236,0.183-1.853C293.177,88.285,324.301,87.508,355.311,82.236z"
				/>
			<path opacity="0.6706" fill="#008A00" enable-background="new    " d="M355.586,84.077c0.08,0.616,0.148,1.232,0.203,1.851
				c-31.328,2.812-59.952-4.698-85.868-22.524c0.353-0.512,0.713-1.017,1.086-1.513C296.199,80.727,324.393,88.122,355.586,84.077z"
				/>
			<path fill="none" stroke="#000000" stroke-width="0.25" d="M355.586,84.077c0.08,0.616,0.148,1.232,0.203,1.851
				c-31.328,2.812-59.952-4.698-85.868-22.524c0.353-0.512,0.713-1.017,1.086-1.513C296.199,80.727,324.393,88.122,355.586,84.077z"
				/>
			<path opacity="0.6706" fill="#008A00" enable-background="new    " d="M355.789,85.928c0.057,0.618,0.1,1.237,0.129,1.857
				c-31.414,1.571-53.887-11.84-67.418-40.235c0.561-0.268,1.125-0.524,1.695-0.768C302.595,75.69,324.461,88.74,355.789,85.928z"/>
			<path fill="none" stroke="#000000" stroke-width="0.25" d="M355.789,85.928c0.057,0.618,0.1,1.237,0.129,1.857
				c-31.414,1.571-53.887-11.84-67.418-40.235c0.561-0.268,1.125-0.524,1.695-0.768C302.595,75.69,324.461,88.74,355.789,85.928z"/>
			<path opacity="0.6706" fill="#008A00" enable-background="new    " d="M355.648,95.716c-0.074,0.617-0.158,1.231-0.257,1.846
				C324.328,92.617,324.414,92.001,355.648,95.716z"/>
			<path fill="none" stroke="#000000" stroke-width="0.25" d="M355.648,95.716c-0.074,0.617-0.158,1.231-0.257,1.846
				C324.328,92.617,324.414,92.001,355.648,95.716z"/>
			<path opacity="0.6706" fill="#008A00" enable-background="new    " d="M355.393,97.562c-0.1,0.612-0.209,1.224-0.329,1.832
				c-30.845-6.168-33.673,0.167-8.479,19.002c-0.371,0.498-0.752,0.988-1.145,1.471C321.01,100.05,324.328,92.617,355.393,97.562z"
				/>
			<path fill="none" stroke="#000000" stroke-width="0.25" d="M355.393,97.562c-0.1,0.612-0.209,1.224-0.329,1.832
				c-30.845-6.168-33.673,0.167-8.479,19.002c-0.371,0.498-0.752,0.988-1.145,1.471C321.01,100.05,324.328,92.617,355.393,97.562z"
				/>
			<path opacity="0.6706" fill="#008A00" enable-background="new    " d="M355.062,99.394c-0.12,0.609-0.256,1.215-0.399,1.818
				c-30.578-7.379-39.666,3.385-27.269,32.294c-0.569,0.245-1.145,0.478-1.725,0.7C314.42,104.832,324.219,93.226,355.062,99.394z"
				/>
			<path fill="none" stroke="#000000" stroke-width="0.25" d="M355.062,99.394c-0.12,0.609-0.256,1.215-0.399,1.818
				c-30.578-7.379-39.666,3.385-27.269,32.294c-0.569,0.245-1.145,0.478-1.725,0.7C314.42,104.832,324.219,93.226,355.062,99.394z"
				/>
			<path opacity="0.6706" fill="#008A00" enable-background="new    " d="M355.979,90.144c0,0.62-0.013,1.242-0.037,1.861
				c-31.433-1.241-49.004,13.756-52.719,44.99c-0.617-0.073-1.23-0.158-1.845-0.256C306.324,105.675,324.523,90.144,355.979,90.144z
				"/>
			<path fill="none" stroke="#000000" stroke-width="0.25" d="M355.979,90.144c0,0.62-0.013,1.242-0.037,1.861
				c-31.433-1.241-49.004,13.756-52.719,44.99c-0.617-0.073-1.23-0.158-1.845-0.256C306.324,105.675,324.523,90.144,355.979,90.144z
				"/>
			<path opacity="0.6706" fill="#008A00" enable-background="new    " d="M354.189,103.013c-0.169,0.598-0.351,1.191-0.544,1.78
				c-29.899-9.767-54.269-2.054-73.104,23.14c-0.498-0.373-0.986-0.754-1.469-1.145C298.888,102.359,323.928,94.433,354.189,103.013
				z"/>
			<path fill="none" stroke="#000000" stroke-width="0.25" d="M354.189,103.013c-0.169,0.598-0.351,1.191-0.544,1.78
				c-29.899-9.767-54.269-2.054-73.104,23.14c-0.498-0.373-0.986-0.754-1.469-1.145C298.888,102.359,323.928,94.433,354.189,103.013
				z"/>
			<path opacity="0.6706" fill="#008A00" enable-background="new    " d="M353.646,104.793c-0.192,0.592-0.397,1.178-0.612,1.76
				c-29.492-10.94-58.692-10.21-87.6,2.19c-0.244-0.57-0.478-1.146-0.699-1.726C294.107,95.769,323.746,95.027,353.646,104.793z"/>
			<path fill="none" stroke="#000000" stroke-width="0.25" d="M353.646,104.793c-0.192,0.592-0.397,1.178-0.612,1.76
				c-29.492-10.94-58.692-10.21-87.6,2.19c-0.244-0.57-0.478-1.146-0.699-1.726C294.107,95.769,323.746,95.027,353.646,104.793z"/>
			<path opacity="0.6706" fill="#008A00" enable-background="new    " d="M353.033,106.553c-0.217,0.581-0.443,1.159-0.683,1.731
				c-29.036-12.094-59.174-20-90.409-23.714c0.074-0.616,0.158-1.231,0.256-1.844C293.263,87.671,323.541,95.613,353.033,106.553z"
				/>
			<path fill="none" stroke="#000000" stroke-width="0.25" d="M353.033,106.553c-0.217,0.581-0.443,1.159-0.683,1.731
				c-29.036-12.094-59.174-20-90.409-23.714c0.074-0.616,0.158-1.231,0.256-1.844C293.263,87.671,323.541,95.613,353.033,106.553z"
				/>
			<path opacity="0.6706" fill="#008A00" enable-background="new    " d="M352.352,108.285c-0.237,0.574-0.487,1.143-0.75,1.705
				c-28.536-13.23-55.402-29.263-80.594-48.099c0.371-0.498,0.752-0.988,1.143-1.469C296.582,80.236,323.314,96.191,352.352,108.285
				z"/>
			<path fill="none" stroke="#000000" stroke-width="0.25" d="M352.352,108.285c-0.237,0.574-0.487,1.143-0.75,1.705
				c-28.536-13.23-55.402-29.263-80.594-48.099c0.371-0.498,0.752-0.988,1.143-1.469C296.582,80.236,323.314,96.191,352.352,108.285
				z"/>
			<path opacity="0.6706" fill="#008A00" enable-background="new    " d="M351.602,109.99c-0.262,0.562-0.532,1.121-0.815,1.674
				c-27.992-14.346-48.19-35.974-60.59-64.881c0.572-0.245,1.146-0.479,1.727-0.7C303.17,75.457,323.064,96.759,351.602,109.99z"/>
			<path fill="none" stroke="#000000" stroke-width="0.25" d="M351.602,109.99c-0.262,0.562-0.532,1.121-0.815,1.674
				c-27.992-14.346-48.19-35.974-60.59-64.881c0.572-0.245,1.146-0.479,1.727-0.7C303.17,75.457,323.064,96.759,351.602,109.99z"/>
			<path opacity="0.6706" fill="#008A00" enable-background="new    " d="M345.439,119.867c-0.392,0.481-0.791,0.955-1.201,1.422
				C320.609,100.525,321.01,100.05,345.439,119.867z"/>
			<path fill="none" stroke="#000000" stroke-width="0.25" d="M345.439,119.867c-0.392,0.481-0.791,0.955-1.201,1.422
				C320.609,100.525,321.01,100.05,345.439,119.867z"/>
			<path opacity="0.6706" fill="#008A00" enable-background="new    " d="M344.238,121.289c-0.41,0.466-0.828,0.925-1.256,1.374
				c-22.793-21.68-28.562-17.831-17.312,11.544c-0.58,0.221-1.164,0.433-1.752,0.631
				C313.838,105.041,320.609,100.525,344.238,121.289z"/>
			<path fill="none" stroke="#000000" stroke-width="0.25" d="M344.238,121.289c-0.41,0.466-0.828,0.925-1.256,1.374
				c-22.793-21.68-28.562-17.831-17.312,11.544c-0.58,0.221-1.164,0.433-1.752,0.631
				C313.838,105.041,320.609,100.525,344.238,121.289z"/>
			<path opacity="0.6706" fill="#008A00" enable-background="new    " d="M349.656,113.736c-0.31,0.537-0.631,1.068-0.961,1.594
				c-26.601-16.791-42.371-9.654-47.318,21.41c-0.613-0.098-1.224-0.207-1.832-0.329
				C305.712,105.567,322.416,98.008,349.656,113.736z"/>
			<path fill="none" stroke="#000000" stroke-width="0.25" d="M349.656,113.736c-0.31,0.537-0.631,1.068-0.961,1.594
				c-26.601-16.791-42.371-9.654-47.318,21.41c-0.613-0.098-1.224-0.207-1.832-0.329
				C305.712,105.567,322.416,98.008,349.656,113.736z"/>
			<path opacity="0.6706" fill="#008A00" enable-background="new    " d="M341.672,123.986c-0.442,0.434-0.897,0.857-1.358,1.271
				c-21.013-23.408-41.424-22.898-61.239,1.531c-0.482-0.392-0.956-0.792-1.423-1.202
				C298.414,101.958,319.754,101.424,341.672,123.986z"/>
			<path fill="none" stroke="#000000" stroke-width="0.25" d="M341.672,123.986c-0.442,0.434-0.897,0.857-1.358,1.271
				c-21.013-23.408-41.424-22.898-61.239,1.531c-0.482-0.392-0.956-0.792-1.423-1.202
				C298.414,101.958,319.754,101.424,341.672,123.986z"/>
			<path opacity="0.6706" fill="#008A00" enable-background="new    " d="M340.312,125.257c-0.463,0.414-0.934,0.82-1.409,1.217
				c-20.072-24.22-44.795-30.705-74.168-19.456c-0.224-0.579-0.434-1.165-0.631-1.751
				C293.898,95.185,319.301,101.849,340.312,125.257z"/>
			<path fill="none" stroke="#000000" stroke-width="0.25" d="M340.312,125.257c-0.463,0.414-0.934,0.82-1.409,1.217
				c-20.072-24.22-44.795-30.705-74.168-19.456c-0.224-0.579-0.434-1.165-0.631-1.751
				C293.898,95.185,319.301,101.849,340.312,125.257z"/>
			<path opacity="0.6706" fill="#008A00" enable-background="new    " d="M338.902,126.474c-0.479,0.395-0.966,0.781-1.457,1.158
				c-19.101-24.992-44.182-39.961-75.247-44.906c0.098-0.613,0.208-1.225,0.33-1.833C293.373,87.06,318.83,102.254,338.902,126.474z
				"/>
			<path fill="none" stroke="#000000" stroke-width="0.25" d="M338.902,126.474c-0.479,0.395-0.966,0.781-1.457,1.158
				c-19.101-24.992-44.182-39.961-75.247-44.906c0.098-0.613,0.208-1.225,0.33-1.833C293.373,87.06,318.83,102.254,338.902,126.474z
				"/>
			<path opacity="0.6706" fill="#008A00" enable-background="new    " d="M337.445,127.632c-0.494,0.377-0.994,0.745-1.502,1.102
				c-18.099-25.727-39.362-48.498-63.793-68.312c0.392-0.482,0.793-0.957,1.202-1.422
				C296.982,79.763,318.346,102.64,337.445,127.632z"/>
			<path fill="none" stroke="#000000" stroke-width="0.25" d="M337.445,127.632c-0.494,0.377-0.994,0.745-1.502,1.102
				c-18.099-25.727-39.362-48.498-63.793-68.312c0.392-0.482,0.793-0.957,1.202-1.422
				C296.982,79.763,318.346,102.64,337.445,127.632z"/>
			<path opacity="0.6706" fill="#008A00" enable-background="new    " d="M335.943,128.734c-0.509,0.357-1.021,0.704-1.543,1.041
				c-17.068-26.422-31.23-54.318-42.479-83.693c0.58-0.223,1.164-0.433,1.752-0.631C303.755,75.246,317.846,103.007,335.943,128.734
				z"/>
			<path fill="none" stroke="#000000" stroke-width="0.25" d="M335.943,128.734c-0.509,0.357-1.021,0.704-1.543,1.041
				c-17.068-26.422-31.23-54.318-42.479-83.693c0.58-0.223,1.164-0.433,1.752-0.631C303.755,75.246,317.846,103.007,335.943,128.734
				z"/>
			<path opacity="0.6706" fill="#008A00" enable-background="new    " d="M323.918,134.837c-0.588,0.198-1.18,0.387-1.775,0.562
				C313.246,105.23,313.838,105.041,323.918,134.837z"/>
			<path fill="none" stroke="#000000" stroke-width="0.25" d="M323.918,134.837c-0.588,0.198-1.18,0.387-1.775,0.562
				C313.246,105.23,313.838,105.041,323.918,134.837z"/>
			<path opacity="0.6706" fill="#008A00" enable-background="new    " d="M332.387,131.005c-0.537,0.31-1.08,0.609-1.631,0.898
				c-14.641-27.84-25.043-26.337-31.21,4.507c-0.61-0.12-1.215-0.255-1.818-0.401C305.107,105.433,316.658,103.764,332.387,131.005z
				"/>
			<path fill="none" stroke="#000000" stroke-width="0.25" d="M332.387,131.005c-0.537,0.31-1.08,0.609-1.631,0.898
				c-14.641-27.84-25.043-26.337-31.21,4.507c-0.61-0.12-1.215-0.255-1.818-0.401C305.107,105.433,316.658,103.764,332.387,131.005z
				"/>
			<path opacity="0.6706" fill="#008A00" enable-background="new    " d="M320.348,135.891c-0.604,0.151-1.209,0.291-1.813,0.421
				c-6.492-30.779-20.12-34.354-40.882-10.726c-0.468-0.409-0.925-0.828-1.374-1.255
				C297.957,101.541,312.646,105.392,320.348,135.891z"/>
			<path fill="none" stroke="#000000" stroke-width="0.25" d="M320.348,135.891c-0.604,0.151-1.209,0.291-1.813,0.421
				c-6.492-30.779-20.12-34.354-40.882-10.726c-0.468-0.409-0.925-0.828-1.374-1.255
				C297.957,101.541,312.646,105.392,320.348,135.891z"/>
			<path opacity="0.6706" fill="#008A00" enable-background="new    " d="M318.533,136.312c-0.607,0.127-1.217,0.244-1.828,0.348
				c-5.273-31.01-22.807-41.475-52.602-31.393c-0.201-0.588-0.387-1.182-0.563-1.777C293.71,94.593,312.041,105.533,318.533,136.312
				z"/>
			<path fill="none" stroke="#000000" stroke-width="0.25" d="M318.533,136.312c-0.607,0.127-1.217,0.244-1.828,0.348
				c-5.273-31.01-22.807-41.475-52.602-31.393c-0.201-0.588-0.387-1.182-0.563-1.777C293.71,94.593,312.041,105.533,318.533,136.312
				z"/>
			<path opacity="0.6706" fill="#008A00" enable-background="new    " d="M316.705,136.66c-0.613,0.104-1.228,0.195-1.844,0.275
				c-4.045-31.194-21.489-49.875-52.333-56.042c0.121-0.607,0.254-1.215,0.4-1.818C293.507,86.454,311.432,105.65,316.705,136.66z"
				/>
			<path fill="none" stroke="#000000" stroke-width="0.25" d="M316.705,136.66c-0.613,0.104-1.228,0.195-1.844,0.275
				c-4.045-31.194-21.489-49.875-52.333-56.042c0.121-0.607,0.254-1.215,0.4-1.818C293.507,86.454,311.432,105.65,316.705,136.66z"
				/>
			<path opacity="0.6706" fill="#008A00" enable-background="new    " d="M314.861,136.935c-0.615,0.079-1.232,0.148-1.851,0.202
				c-2.811-31.329-16.03-57.375-39.66-78.138c0.409-0.466,0.829-0.925,1.256-1.374C297.4,79.304,310.816,105.741,314.861,136.935z"
				/>
			<path fill="none" stroke="#000000" stroke-width="0.25" d="M314.861,136.935c-0.615,0.079-1.232,0.148-1.851,0.202
				c-2.811-31.329-16.03-57.375-39.66-78.138c0.409-0.466,0.829-0.925,1.256-1.374C297.4,79.304,310.816,105.741,314.861,136.935z"
				/>
			<path opacity="0.6706" fill="#008A00" enable-background="new    " d="M313.012,137.137c-0.619,0.056-1.237,0.099-1.856,0.132
				c-1.572-31.417-7.399-62.023-17.481-91.818c0.588-0.2,1.18-0.386,1.775-0.562C304.346,75.058,310.201,105.808,313.012,137.137z"
				/>
			<path fill="none" stroke="#000000" stroke-width="0.25" d="M313.012,137.137c-0.619,0.056-1.237,0.099-1.856,0.132
				c-1.572-31.417-7.399-62.023-17.481-91.818c0.588-0.2,1.18-0.386,1.775-0.562C304.346,75.058,310.201,105.808,313.012,137.137z"
				/>
			<path opacity="0.6706" fill="#008A00" enable-background="new    " d="M308.795,137.327c-0.619,0.001-1.24-0.013-1.859-0.038
				C308.174,105.859,308.795,105.872,308.795,137.327z"/>
			<path fill="none" stroke="#000000" stroke-width="0.25" d="M308.795,137.327c-0.619,0.001-1.24-0.013-1.859-0.038
				C308.174,105.859,308.795,105.872,308.795,137.327z"/>
			<path opacity="0.6706" fill="#008A00" enable-background="new    " d="M295.925,135.537c-0.597-0.168-1.191-0.35-1.781-0.543
				c9.768-29.9,6.787-31.229-8.939-3.988c-0.538-0.311-1.07-0.631-1.595-0.962C300.4,103.443,304.505,105.275,295.925,135.537z"/>
			<path fill="none" stroke="#000000" stroke-width="0.25" d="M295.925,135.537c-0.597-0.168-1.191-0.35-1.781-0.543
				c9.768-29.9,6.787-31.229-8.939-3.988c-0.538-0.311-1.07-0.631-1.595-0.962C300.4,103.443,304.505,105.275,295.925,135.537z"/>
			<path opacity="0.6706" fill="#008A00" enable-background="new    " d="M294.144,134.994c-0.589-0.192-1.176-0.396-1.758-0.613
				c10.939-29.49,2.788-36.373-24.452-20.646c-0.311-0.537-0.61-1.081-0.899-1.63C294.875,97.464,303.912,105.093,294.144,134.994z"
				/>
			<path fill="none" stroke="#000000" stroke-width="0.25" d="M294.144,134.994c-0.589-0.192-1.176-0.396-1.758-0.613
				c10.939-29.49,2.788-36.373-24.452-20.646c-0.311-0.537-0.61-1.081-0.899-1.63C294.875,97.464,303.912,105.093,294.144,134.994z"
				/>
			<path opacity="0.6706" fill="#008A00" enable-background="new    " d="M292.386,134.38c-0.582-0.215-1.16-0.443-1.732-0.682
				c12.096-29.037,2.414-43.555-29.041-43.555c0-0.621,0.012-1.242,0.037-1.861C293.08,89.523,303.326,104.89,292.386,134.38z"/>
			<path fill="none" stroke="#000000" stroke-width="0.25" d="M292.386,134.38c-0.582-0.215-1.16-0.443-1.732-0.682
				c12.096-29.037,2.414-43.555-29.041-43.555c0-0.621,0.012-1.242,0.037-1.861C293.08,89.523,303.326,104.89,292.386,134.38z"/>
			<path opacity="0.6706" fill="#008A00" enable-background="new    " d="M290.654,133.699c-0.574-0.238-1.143-0.488-1.704-0.749
				c13.229-28.538,6.225-50.67-21.016-66.397c0.312-0.538,0.631-1.068,0.962-1.593C295.496,81.748,302.75,104.662,290.654,133.699z"
				/>
			<path fill="none" stroke="#000000" stroke-width="0.25" d="M290.654,133.699c-0.574-0.238-1.143-0.488-1.704-0.749
				c13.229-28.538,6.225-50.67-21.016-66.397c0.312-0.538,0.631-1.068,0.962-1.593C295.496,81.748,302.75,104.662,290.654,133.699z"
				/>
			<path opacity="0.6706" fill="#008A00" enable-background="new    " d="M288.95,132.95c-0.564-0.262-1.121-0.533-1.675-0.817
				c14.348-27.991,13.656-55.609-2.07-82.851c0.537-0.311,1.08-0.61,1.63-0.898C301.476,76.225,302.179,104.412,288.95,132.95z"/>
			<path fill="none" stroke="#000000" stroke-width="0.25" d="M288.95,132.95c-0.564-0.262-1.121-0.533-1.675-0.817
				c14.348-27.991,13.656-55.609-2.07-82.851c0.537-0.311,1.08-0.61,1.63-0.898C301.476,76.225,302.179,104.412,288.95,132.95z"/>
			<path opacity="0.6706" fill="#008A00" enable-background="new    " d="M274.953,123.021c-0.432-0.445-0.855-0.898-1.27-1.361
				C297.091,100.648,297.514,101.103,274.953,123.021z"/>
			<path fill="none" stroke="#000000" stroke-width="0.25" d="M274.953,123.021c-0.432-0.445-0.855-0.898-1.27-1.361
				C297.091,100.648,297.514,101.103,274.953,123.021z"/>
			<path opacity="0.6706" fill="#008A00" enable-background="new    " d="M273.683,121.66c-0.416-0.461-0.821-0.931-1.218-1.41
				c24.221-20.07,21.081-26.255-9.417-18.555c-0.151-0.602-0.291-1.206-0.42-1.814C293.407,93.389,297.091,100.648,273.683,121.66z"
				/>
			<path fill="none" stroke="#000000" stroke-width="0.25" d="M273.683,121.66c-0.416-0.461-0.821-0.931-1.218-1.41
				c24.221-20.07,21.081-26.255-9.417-18.555c-0.151-0.602-0.291-1.206-0.42-1.814C293.407,93.389,297.091,100.648,273.683,121.66z"
				/>
			<path opacity="0.6706" fill="#008A00" enable-background="new    " d="M272.465,120.25c-0.396-0.479-0.782-0.963-1.158-1.457
				c24.992-19.1,22.356-32.938-7.905-41.519c0.17-0.597,0.35-1.19,0.543-1.781C293.845,85.26,296.686,100.179,272.465,120.25z"/>
			<path fill="none" stroke="#000000" stroke-width="0.25" d="M272.465,120.25c-0.396-0.479-0.782-0.963-1.158-1.457
				c24.992-19.1,22.356-32.938-7.905-41.519c0.17-0.597,0.35-1.19,0.543-1.781C293.845,85.26,296.686,100.179,272.465,120.25z"/>
			<path opacity="0.6706" fill="#008A00" enable-background="new    " d="M271.307,118.792c-0.378-0.492-0.745-0.993-1.103-1.5
				c25.728-18.1,27.631-38.43,5.714-60.991c0.444-0.432,0.899-0.856,1.36-1.271C298.29,78.44,296.299,99.693,271.307,118.792z"/>
			<path fill="none" stroke="#000000" stroke-width="0.25" d="M271.307,118.792c-0.378-0.492-0.745-0.993-1.103-1.5
				c25.728-18.1,27.631-38.43,5.714-60.991c0.444-0.432,0.899-0.856,1.36-1.271C298.29,78.44,296.299,99.693,271.307,118.792z"/>
			<path opacity="0.6706" fill="#008A00" enable-background="new    " d="M270.205,117.292c-0.355-0.508-0.703-1.023-1.041-1.545
				c26.422-17.07,35.781-40.852,28.08-71.35c0.602-0.153,1.207-0.293,1.814-0.421C305.55,74.755,295.932,99.193,270.205,117.292z"/>
			<path fill="none" stroke="#000000" stroke-width="0.25" d="M270.205,117.292c-0.355-0.508-0.703-1.023-1.041-1.545
				c26.422-17.07,35.781-40.852,28.08-71.35c0.602-0.153,1.207-0.293,1.814-0.421C305.55,74.755,295.932,99.193,270.205,117.292z"/>
			<path opacity="0.6706" fill="#008A00" enable-background="new    " d="M262.628,99.88c-0.129-0.606-0.244-1.217-0.348-1.828
				C293.291,92.779,293.407,93.389,262.628,99.88z"/>
			<path fill="none" stroke="#000000" stroke-width="0.25" d="M262.628,99.88c-0.129-0.606-0.244-1.217-0.348-1.828
				C293.291,92.779,293.407,93.389,262.628,99.88z"/>
			<path opacity="0.6706" fill="#008A00" enable-background="new    " d="M262.281,98.052c-0.104-0.612-0.197-1.227-0.276-1.841
				c31.194-4.044,31.841-10.952,1.94-20.718c0.193-0.59,0.396-1.176,0.613-1.758C294.05,84.674,293.291,92.779,262.281,98.052z"/>
			<path fill="none" stroke="#000000" stroke-width="0.25" d="M262.281,98.052c-0.104-0.612-0.197-1.227-0.276-1.841
				c31.194-4.044,31.841-10.952,1.94-20.718c0.193-0.59,0.396-1.176,0.613-1.758C294.05,84.674,293.291,92.779,262.281,98.052z"/>
			<path opacity="0.6706" fill="#008A00" enable-background="new    " d="M262.004,96.211c-0.079-0.616-0.147-1.233-0.204-1.851
				c31.33-2.812,36.489-15.921,15.479-39.331c0.463-0.415,0.933-0.82,1.41-1.216C298.759,78.034,293.199,92.167,262.004,96.211z"/>
			<path fill="none" stroke="#000000" stroke-width="0.25" d="M262.004,96.211c-0.079-0.616-0.147-1.233-0.204-1.851
				c31.33-2.812,36.489-15.921,15.479-39.331c0.463-0.415,0.933-0.82,1.41-1.216C298.759,78.034,293.199,92.167,262.004,96.211z"/>
			<path opacity="0.6706" fill="#008A00" enable-background="new    " d="M261.8,94.361c-0.055-0.619-0.098-1.24-0.129-1.859
				c31.416-1.572,43.879-17.747,37.387-48.524c0.608-0.129,1.217-0.245,1.829-0.349C306.16,74.639,293.13,91.549,261.8,94.361z"/>
			<path fill="none" stroke="#000000" stroke-width="0.25" d="M261.8,94.361c-0.055-0.619-0.098-1.24-0.129-1.859
				c31.416-1.572,43.879-17.747,37.387-48.524c0.608-0.129,1.217-0.245,1.829-0.349C306.16,74.639,293.13,91.549,261.8,94.361z"/>
			<path opacity="0.6706" fill="#008A00" enable-background="new    " d="M264.558,73.735c0.217-0.582,0.443-1.161,0.683-1.733
				C294.277,84.097,294.05,84.674,264.558,73.735z"/>
			<path fill="none" stroke="#000000" stroke-width="0.25" d="M264.558,73.735c0.217-0.582,0.443-1.161,0.683-1.733
				C294.277,84.097,294.05,84.674,264.558,73.735z"/>
			<path opacity="0.6706" fill="#008A00" enable-background="new    " d="M265.241,72.002c0.237-0.573,0.487-1.142,0.749-1.705
				c28.536,13.231,32.77,7.737,12.699-16.483c0.479-0.396,0.965-0.782,1.457-1.159C299.246,77.648,294.277,84.097,265.241,72.002z"
				/>
			<path fill="none" stroke="#000000" stroke-width="0.25" d="M265.241,72.002c0.237-0.573,0.487-1.142,0.749-1.705
				c28.536,13.231,32.77,7.737,12.699-16.483c0.479-0.396,0.965-0.782,1.457-1.159C299.246,77.648,294.277,84.097,265.241,72.002z"
				/>
			<path opacity="0.6706" fill="#008A00" enable-background="new    " d="M265.99,70.297c0.262-0.562,0.533-1.121,0.816-1.673
				c27.992,14.346,39.354,6.014,34.081-24.996c0.612-0.104,1.227-0.196,1.842-0.275C306.773,74.547,294.526,83.529,265.99,70.297z"
				/>
			<path fill="none" stroke="#000000" stroke-width="0.25" d="M265.99,70.297c0.262-0.562,0.533-1.121,0.816-1.673
				c27.992,14.346,39.354,6.014,34.081-24.996c0.612-0.104,1.227-0.196,1.842-0.275C306.773,74.547,294.526,83.529,265.99,70.297z"
				/>
			<path opacity="0.6706" fill="#008A00" enable-background="new    " d="M280.146,52.655c0.494-0.378,0.993-0.745,1.502-1.102
				C299.746,77.28,299.246,77.648,280.146,52.655z"/>
			<path fill="none" stroke="#000000" stroke-width="0.25" d="M280.146,52.655c0.494-0.378,0.993-0.745,1.502-1.102
				C299.746,77.28,299.246,77.648,280.146,52.655z"/>
			<path opacity="0.6706" fill="#008A00" enable-background="new    " d="M281.648,51.554c0.507-0.358,1.021-0.704,1.543-1.042
				c17.07,26.422,23.583,24.036,19.538-7.159c0.616-0.081,1.233-0.148,1.851-0.204C307.389,74.479,299.746,77.28,281.648,51.554z"/>
			<path fill="none" stroke="#000000" stroke-width="0.25" d="M281.648,51.554c0.507-0.358,1.021-0.704,1.543-1.042
				c17.07,26.422,23.583,24.036,19.538-7.159c0.616-0.081,1.233-0.148,1.851-0.204C307.389,74.479,299.746,77.28,281.648,51.554z"/>
			<path opacity="0.6706" fill="#008A00" enable-background="new    " d="M304.58,43.149c0.617-0.056,1.238-0.098,1.858-0.129
				C308.01,74.436,307.389,74.479,304.58,43.149z"/>
			<path fill="none" stroke="#000000" stroke-width="0.25" d="M304.58,43.149c0.617-0.056,1.238-0.098,1.858-0.129
				C308.01,74.436,307.389,74.479,304.58,43.149z"/>
		</g>
	</g>
</g>
</svg>
