<?xml version="1.0" encoding="UTF-8"?>
<svg width="512pt" height="512pt" version="1.1" viewBox="0 0 512 512" xmlns="http://www.w3.org/2000/svg">
 <g>
  <path d="m434.2 250.34c-15.449-11.988-34.73-18.59-54.293-18.59h-87.098c-22.641 0-44.191 8.543-60.684 24.055l-54.457 51.219c-1.6836 1.5742-4.2578 1.6211-5.9844 0.10937l-38.121-33.266-1.9453-7.2617c-5.7656-21.527-4.9414-44.293 2.375-65.348 0.47656-1.3711 0.71875-2.8125 0.71875-4.2656 0-7.1758-5.8164-12.992-12.992-12.992h-50.828c-7.1758 0-12.992 5.8164-12.992 12.992 0 1.4531 0.24219 2.8945 0.71875 4.2656 7.3164 21.055 8.1445 43.816 2.375 65.348l-25.219 94.152c-0.65234 2.4375-0.98438 4.9531-0.98438 7.4766 0 13.676 9.5898 25.48 22.98 28.281 12.707 2.6562 25.621 3.9844 38.535 3.9844 12.914 0 25.828-1.3281 38.535-3.9844 8.0312-1.6797 14.641-6.6328 18.691-13.254 6.3984 3.4492 13.602 5.3633 21.133 5.3633 9.6953 0 19.289-3.2344 27.008-9.1094l34.203-26.016c0.65234 7.8359 2.2852 15.438 4.8828 22.688 5.6094 15.648 7.9844 31.27 7.0547 46.43l-2.8984 48.594c-0.20312 3.3047 0.98047 6.5859 3.25 9 2.2695 2.4141 5.4727 3.7969 8.7812 3.7969h204.22c6.5547 0 11.961-5.332 12.055-11.891l1.8984-136.75c0.45312-33.008-14.84-64.793-40.922-85.023zm-63.012 27.961 5.2852 11.426-36.469 11.176v-6.6289c1.3945-0.65625 2.6523-1.6758 3.5547-3.1406l31.773-51.383h0.73828c0.10156 0.14062 0.14844 0.30078 0.27344 0.42969l18.809 19.684-22.379 13.32c-1.7617 1.0469-2.4453 3.2578-1.5859 5.1172zm-74.5-5.1172-21.867-13.016 23.203-19.566 31.246 50.535c0.72266 1.1602 1.6797 2.0273 2.7344 2.6797v7.8672l-39.016-11.957 5.2852-11.426c0.85938-1.8594 0.17578-4.0703-1.5859-5.1172zm-225.8-81.184h50.828c2.7539 0 4.9922 2.2383 4.9922 4.9922 0 0.55859-0.09375 1.1094-0.27734 1.6367-7.4141 21.34-8.543 44.059-3.4727 65.984 0.3125 1.3516 0.56641 2.7109 0.92578 4.0586l2.5781 9.6211 1.5273 5.707h-27.988c-2.2109 0-4 1.7891-4 4s1.7891 4 4 4h30.133l2.2852 8.5352h-72.238l8.5352-31.863c6.207-23.168 5.3242-47.387-2.5469-70.043-0.18359-0.52734-0.27734-1.0781-0.27734-1.6367 0.003906-2.7539 2.2461-4.9922 4.9961-4.9922zm39.145 128.59c0.58984-0.33984 1.2383-0.58984 1.9688-0.58984h20c2.2109 0 4 1.7891 4 4s-1.7891 4-4 4h-20c-2.2109 0-4-1.7891-4-4 0-1.4805 0.83984-2.7148 2.0312-3.4102zm9.9688 31.41h20c2.2109 0 4 1.7891 4 4 0 1.9922-1.4766 3.5664-3.3828 3.875-0.20703 0.035156-0.39844 0.125-0.61719 0.125h-20c-2.2109 0-4-1.7891-4-4s1.7891-4 4-4zm133.98 122.73c-0.77344-0.82422-1.1602-1.8984-1.0938-3.0352l2.8984-48.594c0.99609-16.246-1.5273-32.938-7.5039-49.617-0.60938-1.7031-1.1133-3.4492-1.6055-5.1953-5.6719-37.137-0.79688-56.562-0.69922-56.934 0.57031-2.1289-0.69141-4.3203-2.8203-4.8984-2.1367-0.57812-4.3281 0.69141-4.9023 2.8203-0.16797 0.62891-3.1211 12.016-2.1406 33.984l-39.285 29.883c-6.3359 4.8203-14.207 7.4766-22.164 7.4766-6.4336 0-12.57-1.6992-17.977-4.7578 0.67578-2.4531 1.1328-4.9883 1.1328-7.6289 0-2.5234-0.33203-5.0391-0.98438-7.4766l-19.566-73.031 29.148 25.438c4.8438 4.2266 12.035 4.0898 16.723-0.3125l54.461-51.219c13.398-12.605 30.48-20.105 48.652-21.574l-20.887 17.613c-0.99219 0.83594-1.5156 2.0977-1.4102 3.3867 0.10547 1.2891 0.82812 2.4453 1.9414 3.1094l23.598 14.047-5.6992 12.312c-0.48438 1.0469-0.49219 2.2539-0.023437 3.3125 0.47266 1.0547 1.375 1.8516 2.4805 2.1914l45.066 13.809c0.20703 0.19531 0.42969 0.35938 0.67578 0.50391v165.66h-75.062c-1.1289 0-2.1797-0.45312-2.9531-1.2773zm211.23-2.7266c-0.03125 2.207-1.8477 4.0039-4.0547 4.0039h-31.828l-2.3164-44.754c-0.95312-18.34 1.2305-37.461 6.4844-56.828 4.5234-16.691 6.3906-38.301 5.5547-64.234-0.070313-2.207-1.9258-4.0977-4.1289-3.8672-2.2109 0.070312-3.9414 1.918-3.8711 4.125 0.8125 25.141-0.96484 45.961-5.2812 61.883-5.4727 20.188-7.7461 40.148-6.7461 59.336l2.2969 44.34h-81.324v-166.74l43.199-13.238c1.1055-0.33984 2.0078-1.1367 2.4805-2.1914 0.47266-1.0586 0.46484-2.2656-0.023438-3.3125l-5.6992-12.312 23.598-14.047c1.0469-0.625 1.7539-1.6914 1.9141-2.8984 0.16406-1.207-0.22656-2.4219-1.0703-3.3008l-17.051-17.84c15.188 1.4258 29.852 7.1523 41.941 16.531 24.109 18.699 38.246 48.078 37.82 78.594z"/>
  <path d="m372 328c0 4.418-3.582 8-8 8s-8-3.582-8-8 3.582-8 8-8 8 3.582 8 8"/>
  <path d="m372 368c0 4.418-3.582 8-8 8s-8-3.582-8-8 3.582-8 8-8 8 3.582 8 8"/>
  <path d="m372 408c0 4.418-3.582 8-8 8s-8-3.582-8-8 3.582-8 8-8 8 3.582 8 8"/>
  <path d="m372 448c0 4.418-3.582 8-8 8s-8-3.582-8-8 3.582-8 8-8 8 3.582 8 8"/>
  <path d="m132 148c8.8203 0 16-7.1758 16-16s-7.1797-16-16-16-16 7.1758-16 16 7.1797 16 16 16zm0-24c4.4102 0 8 3.5898 8 8s-3.5898 8-8 8-8-3.5898-8-8 3.5898-8 8-8z"/>
  <path d="m92 108c8.8203 0 16-7.1758 16-16s-7.1797-16-16-16-16 7.1758-16 16 7.1797 16 16 16zm0-24c4.4102 0 8 3.5898 8 8s-3.5898 8-8 8-8-3.5898-8-8 3.5898-8 8-8z"/>
  <path d="m76 164c8.8203 0 16-7.1758 16-16s-7.1797-16-16-16-16 7.1758-16 16 7.1797 16 16 16zm0-24c4.4102 0 8 3.5898 8 8s-3.5898 8-8 8-8-3.5898-8-8 3.5898-8 8-8z"/>
  <path d="m304 328h-32c-2.2109 0-4 1.7891-4 4s1.7891 4 4 4h32c2.2109 0 4-1.7891 4-4s-1.7891-4-4-4z"/>
  <path d="m261.01 221.08c13.477 0 25.781-4.9258 35.285-13.039 11.387 7.543 25.023 11.961 39.703 11.961 14.91 0 28.766-4.5352 40.258-12.297 9.5547 8.3086 22 13.375 35.656 13.375 30.051 0 54.41-24.359 54.41-54.41 0-18.953-9.7031-35.625-24.398-45.367 2.8359-6.5938 4.4219-13.852 4.4219-21.484 0-30.051-24.359-54.41-54.41-54.41-2.4648 0-4.875 0.22266-7.2539 0.53906-9.9141-13.371-25.766-22.078-43.691-22.078-18.137 0-34.16 8.9102-44.047 22.555-3.3594-0.64844-6.8164-1.0156-10.367-1.0156-30.051 0-54.41 24.359-54.41 54.41 0 6.6094 1.2383 12.91 3.3945 18.77-17.223 9.1328-28.965 27.227-28.965 48.078 0.003906 30.055 24.363 54.414 54.414 54.414zm74.988-9.0781c-12.438 0-24.02-3.6211-33.852-9.7852-10.184-6.3828-18.426-15.531-23.703-26.41 0.64063 0.10156 1.2852 0.19531 1.957 0.19531h38.762c3.3438 0 6.5898-1.3789 8.9102-3.7773l6.7852-7.0117c0.83594-0.86328 1.9609-1.3398 3.1602-1.3398h0.003907c1.2031 0.003906 2.3281 0.48047 3.1602 1.3438l6.7344 6.9922c2.3281 2.4102 5.5859 3.793 8.9297 3.793h36.613c-5.1797 10.582-13.16 19.527-23.012 25.852-9.957 6.3906-21.762 10.148-34.449 10.148zm64-86.758v38.359c0 1.9844-1.3438 3.5977-3.1523 4.1445-0.40234 0.125-0.80469 0.25391-1.25 0.25391h-38.754c-1.1875 0-2.3438-0.49219-3.168-1.3438l-6.7344-6.9922c-2.3516-2.4414-5.5195-3.7891-8.9141-3.793h-0.011719c-3.3906 0-6.5547 1.3398-8.9102 3.7773l-6.7852 7.0117c-0.82031 0.85156-1.9727 1.3398-3.1602 1.3398h-38.762c-2.4258 0-4.3984-1.9727-4.3984-4.3984v-39.203c0-1.6172 0.91797-2.9688 2.2188-3.7344 0.65234-0.38281 1.3711-0.66406 2.1836-0.66406h115.2c1.0898 0 2.0586 0.44141 2.8281 1.0977 0.9375 0.80859 1.5664 1.9648 1.5664 3.3008z"/>
  <path d="m304.44 133.99c-0.14844 0.11328-0.32422 0.16797-0.45703 0.30469l-14.031 14.031c-1.5625 1.5625-1.5625 4.0938 0 5.6562 0.03125 0.03125 0.078125 0.042969 0.10938 0.074219 0.76562 0.71875 1.7383 1.0977 2.7188 1.0977 1.0234 0 2.0469-0.39062 2.8281-1.1719l14.031-14.031c1.5625-1.5625 1.5625-4.0938 0-5.6562-1.4258-1.4258-3.6289-1.4844-5.1992-0.30469z"/>
  <path d="m332.28 130.81c-0.19922-0.19922-0.44531-0.29688-0.67188-0.44531-1.5156-0.99609-3.5117-0.90234-4.875 0.375-0.03125 0.03125-0.078125 0.039063-0.10938 0.070313l-14.031 14.031c-0.53906 0.53906-0.82422 1.207-0.99219 1.8984-0.11328 0.46875-0.14453 0.92969-0.085937 1.4062 0.10547 0.85547 0.42188 1.6914 1.0781 2.3516 0.13672 0.13672 0.3125 0.19531 0.46094 0.30859 0.70703 0.53125 1.5234 0.86719 2.3672 0.86719 1.0234 0 2.0469-0.39062 2.8281-1.1719l14.031-14.031c1.1953-1.1953 1.4609-2.9492 0.82812-4.4102-0.19531-0.45312-0.46094-0.88281-0.82812-1.25z"/>
  <path d="m80 212h36c2.2109 0 4-1.7891 4-4s-1.7891-4-4-4h-36c-2.2109 0-4 1.7891-4 4s1.7891 4 4 4z"/>
 </g>
</svg>
