<?xml version="1.0" encoding="UTF-8"?>
<svg width="512pt" height="512pt" version="1.1" viewBox="0 0 512 512" xmlns="http://www.w3.org/2000/svg">
 <g>
  <path d="m214 366.15c0 28.172 6.8594 55.195 19.824 79.352h-3.1797c-14.051 0-25.438 11.391-25.438 25.441v39.664c0 0.48047 0.11719 0.92578 0.14453 1.3984l-121.49-0.003906c0.19531-4.793 0.95703-12.754 3.1172-25.805 4.793-28.672 32.098-56.68 46.223-79.441 2.1289-3.4336 4.4336-6.5742 6.7695-9.6914 3.9727-17.102 7.1992-33.746 7.1992-33.746l9.8516-2.4414c0.95703-6.5898 1.1758-14.281 0.41406-23.574-5.4414-66.207-70.734-31.164-89.508-43.07-17.469-11.062-7.0156-23.234-7.2812-31.98-0.48047-16.086-9.0352-12.77-9.5938-17.004-0.91797-6.8867 4.9062-7.4336 4.9219-8.4883-0.046875-2.7461-9.5117-5.2617-7.9219-9.2109 1.332-3.2656 5.4258-11.703 6.6445-15.039 2.6719-7.3281-27.781-7.6406-22.492-17.266 3.793-6.9023 20.781-31.953 26.664-40.293 9.0586-12.809 6.6914-17.73 1.5664-27.176-2.5234-4.6602 7.4297-16.188 7.9609-20.973 2.625-22.906 9.7109-46.449 19.973-58.629 2.8164-3.3555-4.043-10.758 0.066406-16.426 16.332-22.629 70.488-31.641 96.449-31.754 75.918-0.32813 108.19 12.734 127.77 88.176 0.16016 0.59375 0.24609 1.2031 0.39453 1.8086l-11.711 10.133c-2.3398-1.5781-4.8789-2.8633-7.6484-3.6055-2.1602-0.57812-4.3711-0.86719-6.5742-0.86719-4.4219 0-8.8203 1.1562-12.719 3.4141l-30.133 17.402c-12.16 7.0234-16.328 22.57-9.3086 34.73l2.0547 3.5586c-2.1758 6.6289-1.6289 14.137 2.1367 20.66l35.176 60.902c-38.152 32.051-60.328 79.035-60.328 129.84z"/>
  <path d="m374.15 422.52 96.68-55.82 9.5781 16.586-96.68 55.82z"/>
  <path d="m285.07 470.93c-27.969-26.363-45.641-63.434-45.641-104.79 0-50.965 26.754-96.906 68.371-122.73l-46.617-80.719 7.332-4.2461-11.516-19.969 30.125-17.402 11.52 19.957 7.7422-4.4609 114.62 198.54-10.023 5.8164 14.199 24.602-25.133 14.504-14.227-24.59-9.9883 5.7969-48.199-83.504c-29.59 18.828-48.508 51.824-48.508 88.391 0 57.793 47.008 104.79 104.78 104.79h84.477v39.664l-237.74 0.007812v-39.664h54.43z"/>
 </g>
</svg>
