<?xml version="1.0" encoding="UTF-8"?>
<svg width="512pt" height="512pt" version="1.1" viewBox="0 0 512 512" xmlns="http://www.w3.org/2000/svg">
 <g>
  <path d="m192.68 364.09v131.14c0 4.8672 3.9062 8.7734 8.7734 8.7734h20.523c4.8672 0 8.7734-3.9062 8.7734-8.7734v-131.04l-38.07-0.10156zm52.641 0.15234v131.75c0 4.8672 3.957 8.7734 8.8242 8.7734h20.473c4.8672 0 8.8242-3.9062 8.8242-8.7734v-131.7z"/>
  <path d="m394.67 77.953c-0.58203 0.058594-1.1641 0.17969-1.7461 0.35938l-21.445 6.6172 7.543 28.371 22.574-6.9766c4.6484-1.4375 7.2344-6.3789 5.7969-11.031l-3.4883-11.184c-1.2578-4.0703-5.1602-6.5625-9.2344-6.1562z"/>
  <path d="m144.24 250.6-0.61719 5.4883c-0.54688 4.8359 2.9102 9.1484 7.7461 9.6953l11.648 1.332c4.8359 0.54687 9.1484-2.9102 9.6953-7.7461l0.61719-5.6445-29.09-3.1289z"/>
  <path d="m219.71 93.242-2 0.20703s-28.676 3.0352-46.844 4.668h-0.050782c-7.8984 0.57031-13.387 1.6172-16.828 5.6445-3.4531 4.0352-4.2305 10.109-4.2578 19.855-0.10547 36.805-11.699 127.19-11.699 127.19l-0.30859 2.207 2.2578 0.15234 35.914 2.7695 2 0.15234 0.30859-1.9492 14.621-101.59 2.668 0.25781-6.1055 93.531-28.836 117.54-0.66797 2.6172h2.7188l73.676-0.51172h2.1055v-3.1797l-4-0.30859v-42.227l-0.25781 41.457-68.801 0.51172 28.27-115.08v-0.15234l0.050782-0.20703 6.2578-95.738 0.15234-2.0508-2.0508-0.20703-6.7734-0.66797-2-0.20703-0.30859 2-14.672 101.59-31.758-2.4102c0.49219-3.8359 11.387-88.664 11.492-125.5 0.027344-9.4922 1.0312-14.512 3.2305-17.086 2.1992-2.5742 6.2773-3.6055 13.957-4.1562 17.441-1.5703 42.617-4.2695 44.945-4.5156l18.625 121.18 2.207-13.648-16.93-110.16-0.30859-2z"/>
  <path d="m374.66 78.98-2.3086 0.82031s-38.059 13.145-74.652 17.855c-14.453-0.76562-29.766-2.5977-44.586-4.207l-2-0.20703-0.30859 2-19.188 124.83v0.30469l0.82031 143.45v2.1055h2.1055l73.676 0.56641 2.7188 0.050781-0.66797-2.668-28.836-117.59-6.1055-93.48 4.668-0.46094h0.25781l0.25781-0.10156c32.852-11.539 66.957-22.238 100.41-33.145l1.7969-0.56641-0.35938-1.8477-7.1836-35.297zm-3.2305 5.543 6.3633 31.145c-32.781 10.672-66.207 21.188-98.508 32.527l-6.4141 0.61719-2.0508 0.20703 0.15234 2.0508 6.2578 95.738v0.15234l0.050781 0.20703 28.219 115.13-68.852-0.56641-0.82031-141.04 18.879-122.83c14.266 1.5586 28.973 3.2695 43.047 4l0.20703 0.050781 0.15234-0.050781c35.402-4.543 69.797-16.145 73.316-17.34z"/>
  <path d="m233.68 3.0156c-24.266 0-43.938 19.672-43.938 43.938v0.089844h-0.089844c-0.40625 13.852-1.3164 23.266-2.5625 32.312-1.1758 3.8398-7.7812-0.27734-13.641-3.2031 2.7188 13.527 7.6719 17.633 14.555 17.664 5.7344-0.20703 12.363-5.4609 11.809-17.664 0-0.38281-0.003906-0.88281 0-1.2812 8.0586 9.7656 20.219 16.02 33.867 16.02 13.555 0 25.625-6.1836 33.684-15.836 0.003906 0.33984 0 0.76953 0 1.0977-0.55469 12.203 6.1641 17.461 11.898 17.664 6.8828-0.042968 11.742-4.1367 14.461-17.664-5.8594 2.9297-12.461 7.043-13.641 3.2031-1.2109-8.7891-2.1406-18.004-2.5625-31.215 0.011718-0.39844 0.089843-0.78516 0.089843-1.1914 0-24.266-19.672-43.938-43.938-43.938z"/>
  <path d="m393.03 63.125c-0.035156 0.019531-0.070313 0.035156-0.10156 0.054688l-19.035 5.1289c-0.85938 0.25-1.3594 1.1367-1.1289 2l14.93 55.102-6.1562 26.781v0.003906c-0.13281 0.56641 0.046875 1.1602 0.46875 1.5625 0.42188 0.39844 1.0234 0.54688 1.582 0.38672l44.379-12.008c0.5625-0.14844 1.0039-0.58203 1.1602-1.1367 0.16016-0.55859 0.011719-1.1602-0.39062-1.582l-18.879-20.062-14.93-55.051c-0.22656-0.82813-1.0547-1.3438-1.8984-1.1797zm-0.87109 3.6445 14.672 53.871c0.066406 0.24609 0.1875 0.47656 0.35938 0.66797l17.238 18.367-39.043 10.57 5.5938-24.523v-0.003906c0.058594-0.25 0.058594-0.51562 0-0.76953l-14.672-53.871 15.855-4.3086z"/>
  <path d="m388.09 131.99 31.102 0.26562 7.9414 7.9414-43.805 12.176z"/>
 </g>
</svg>
